<svg xmlns="http://www.w3.org/2000/svg" xmlns:xlink="http://www.w3.org/1999/xlink" fill="none" width="309" zoomAndPan="magnify" viewBox="0 0 309 70" height="70" preserveAspectRatio="xMidYMid meet" version="1.0"><defs><g/><clipPath id="5e652bcbbb"><path d="M 23 27 L 45.1875 27 L 45.1875 46.566406 L 23 46.566406 Z M 23 27 " clip-rule="nonzero"/></clipPath><clipPath id="bd179e227c"><path d="M 28 17 L 45.1875 17 L 45.1875 28 L 28 28 Z M 28 17 " clip-rule="nonzero"/></clipPath><clipPath id="db3b5b70b6"><path d="M 9.488281 8.636719 L 32 8.636719 L 32 28 L 9.488281 28 Z M 9.488281 8.636719 " clip-rule="nonzero"/></clipPath></defs><g fill="#ff3f4b" fill-opacity="1"><g transform="translate(56.825339, 47.781935)"><g><path d="M 19.421875 -19.8125 C 20.160156 -19.8125 20.734375 -19.648438 21.140625 -19.328125 C 21.546875 -19.015625 21.75 -18.582031 21.75 -18.03125 C 21.75 -17.75 21.707031 -17.476562 21.625 -17.21875 L 20.859375 -14.453125 C 20.710938 -13.921875 20.503906 -13.550781 20.234375 -13.34375 C 19.972656 -13.132812 19.59375 -13.03125 19.09375 -13.03125 C 18.625 -13.03125 18.253906 -13.132812 17.984375 -13.34375 C 17.710938 -13.550781 17.507812 -13.894531 17.375 -14.375 L 16.890625 -16.0625 C 16.796875 -16.414062 16.675781 -16.648438 16.53125 -16.765625 C 16.394531 -16.890625 16.128906 -16.953125 15.734375 -16.953125 L 12.609375 -16.953125 L 11.125 -11.65625 L 12.4375 -11.65625 C 12.570312 -11.65625 12.757812 -11.753906 13 -11.953125 L 14.015625 -12.859375 C 14.304688 -13.109375 14.5625 -13.289062 14.78125 -13.40625 C 15 -13.53125 15.269531 -13.59375 15.59375 -13.59375 C 15.945312 -13.59375 16.238281 -13.5 16.46875 -13.3125 C 16.695312 -13.125 16.8125 -12.878906 16.8125 -12.578125 C 16.8125 -12.503906 16.789062 -12.390625 16.75 -12.234375 L 15.53125 -8.09375 C 15.40625 -7.65625 15.195312 -7.332031 14.90625 -7.125 C 14.625 -6.914062 14.316406 -6.8125 13.984375 -6.8125 C 13.429688 -6.8125 13.015625 -7.097656 12.734375 -7.671875 L 12.234375 -8.71875 C 12.085938 -9.007812 11.867188 -9.15625 11.578125 -9.15625 L 10.40625 -9.15625 L 8.65625 -2.859375 L 11.28125 -2.859375 C 11.65625 -2.859375 11.984375 -2.929688 12.265625 -3.078125 C 12.554688 -3.222656 12.867188 -3.488281 13.203125 -3.875 L 15 -5.828125 C 15.3125 -6.171875 15.609375 -6.414062 15.890625 -6.5625 C 16.179688 -6.707031 16.535156 -6.78125 16.953125 -6.78125 C 17.390625 -6.78125 17.742188 -6.679688 18.015625 -6.484375 C 18.296875 -6.285156 18.4375 -5.988281 18.4375 -5.59375 C 18.4375 -5.4375 18.410156 -5.25 18.359375 -5.03125 L 17.5 -2.015625 C 17.28125 -1.265625 16.960938 -0.738281 16.546875 -0.4375 C 16.128906 -0.144531 15.519531 0 14.71875 0 L 0.53125 0 C 0.113281 0 -0.207031 -0.0664062 -0.4375 -0.203125 C -0.664062 -0.347656 -0.78125 -0.539062 -0.78125 -0.78125 C -0.78125 -0.894531 -0.75 -1.019531 -0.6875 -1.15625 C -0.601562 -1.375 -0.472656 -1.539062 -0.296875 -1.65625 C -0.117188 -1.78125 -0.0078125 -1.851562 0.03125 -1.875 C 0.34375 -2.070312 0.597656 -2.273438 0.796875 -2.484375 C 0.992188 -2.691406 1.164062 -3.035156 1.3125 -3.515625 L 4.96875 -16.328125 C 5.050781 -16.585938 5.09375 -16.828125 5.09375 -17.046875 C 5.09375 -17.285156 5.054688 -17.484375 4.984375 -17.640625 C 4.910156 -17.796875 4.804688 -17.960938 4.671875 -18.140625 C 4.492188 -18.398438 4.40625 -18.609375 4.40625 -18.765625 C 4.40625 -18.828125 4.425781 -18.9375 4.46875 -19.09375 C 4.539062 -19.351562 4.71875 -19.535156 5 -19.640625 C 5.28125 -19.753906 5.6875 -19.8125 6.21875 -19.8125 Z M 19.421875 -19.8125 "/></g></g></g><g fill="#ff3f4b" fill-opacity="1"><g transform="translate(76.786927, 47.781935)"><g><path d="M 25.46875 -19.8125 C 25.925781 -19.8125 26.269531 -19.726562 26.5 -19.5625 C 26.738281 -19.394531 26.859375 -19.171875 26.859375 -18.890625 C 26.859375 -18.773438 26.847656 -18.6875 26.828125 -18.625 C 26.773438 -18.363281 26.65625 -18.164062 26.46875 -18.03125 C 26.289062 -17.90625 26.003906 -17.765625 25.609375 -17.609375 C 25.078125 -17.367188 24.597656 -17.132812 24.171875 -16.90625 C 23.742188 -16.6875 23.253906 -16.335938 22.703125 -15.859375 L 16.78125 -10.828125 L 19.671875 -3.8125 C 19.867188 -3.332031 20.085938 -2.960938 20.328125 -2.703125 C 20.578125 -2.453125 20.878906 -2.207031 21.234375 -1.96875 C 21.492188 -1.769531 21.671875 -1.613281 21.765625 -1.5 C 21.867188 -1.394531 21.921875 -1.242188 21.921875 -1.046875 C 21.921875 -0.679688 21.800781 -0.414062 21.5625 -0.25 C 21.332031 -0.0820312 20.9375 0 20.375 0 L 12.375 0 C 11.863281 0 11.484375 -0.0820312 11.234375 -0.25 C 10.984375 -0.414062 10.859375 -0.640625 10.859375 -0.921875 C 10.859375 -1.035156 10.867188 -1.125 10.890625 -1.1875 C 10.929688 -1.320312 11 -1.441406 11.09375 -1.546875 C 11.195312 -1.660156 11.296875 -1.757812 11.390625 -1.84375 C 11.546875 -1.976562 11.664062 -2.101562 11.75 -2.21875 C 11.832031 -2.34375 11.875 -2.515625 11.875 -2.734375 C 11.875 -3.078125 11.765625 -3.515625 11.546875 -4.046875 L 10.5 -6.578125 L 7.796875 -4.046875 C 7.242188 -3.546875 6.96875 -3.097656 6.96875 -2.703125 C 6.96875 -2.523438 7.003906 -2.375 7.078125 -2.25 C 7.160156 -2.132812 7.289062 -1.976562 7.46875 -1.78125 C 7.644531 -1.601562 7.773438 -1.4375 7.859375 -1.28125 C 7.953125 -1.125 7.96875 -0.957031 7.90625 -0.78125 C 7.832031 -0.476562 7.671875 -0.269531 7.421875 -0.15625 C 7.171875 -0.0507812 6.78125 0 6.25 0 L 0.03125 0 C -0.425781 0 -0.773438 -0.0820312 -1.015625 -0.25 C -1.253906 -0.414062 -1.375 -0.640625 -1.375 -0.921875 C -1.375 -1.035156 -1.363281 -1.125 -1.34375 -1.1875 C -1.28125 -1.445312 -1.160156 -1.640625 -0.984375 -1.765625 C -0.804688 -1.898438 -0.519531 -2.046875 -0.125 -2.203125 C 0.4375 -2.441406 0.929688 -2.675781 1.359375 -2.90625 C 1.785156 -3.144531 2.265625 -3.492188 2.796875 -3.953125 L 9.28125 -9.515625 L 6.609375 -16 C 6.410156 -16.476562 6.1875 -16.847656 5.9375 -17.109375 C 5.6875 -17.367188 5.382812 -17.613281 5.03125 -17.84375 C 4.769531 -18.039062 4.585938 -18.191406 4.484375 -18.296875 C 4.390625 -18.410156 4.34375 -18.566406 4.34375 -18.765625 C 4.34375 -19.128906 4.460938 -19.394531 4.703125 -19.5625 C 4.941406 -19.726562 5.335938 -19.8125 5.890625 -19.8125 L 13.890625 -19.8125 C 14.410156 -19.8125 14.789062 -19.726562 15.03125 -19.5625 C 15.28125 -19.394531 15.40625 -19.171875 15.40625 -18.890625 C 15.40625 -18.773438 15.394531 -18.6875 15.375 -18.625 C 15.34375 -18.488281 15.273438 -18.363281 15.171875 -18.25 C 15.078125 -18.144531 14.976562 -18.050781 14.875 -17.96875 C 14.71875 -17.832031 14.597656 -17.703125 14.515625 -17.578125 C 14.441406 -17.460938 14.40625 -17.296875 14.40625 -17.078125 C 14.40625 -16.753906 14.507812 -16.316406 14.71875 -15.765625 L 15.5625 -13.78125 L 17.703125 -15.765625 C 18.273438 -16.285156 18.5625 -16.734375 18.5625 -17.109375 C 18.5625 -17.285156 18.515625 -17.4375 18.421875 -17.5625 C 18.335938 -17.695312 18.207031 -17.851562 18.03125 -18.03125 C 17.988281 -18.070312 17.910156 -18.15625 17.796875 -18.28125 C 17.691406 -18.40625 17.617188 -18.53125 17.578125 -18.65625 C 17.535156 -18.789062 17.535156 -18.921875 17.578125 -19.046875 C 17.660156 -19.335938 17.820312 -19.535156 18.0625 -19.640625 C 18.3125 -19.753906 18.707031 -19.8125 19.25 -19.8125 Z M 25.46875 -19.8125 "/></g></g></g><g fill="#ff3f4b" fill-opacity="1"><g transform="translate(100.853875, 47.781935)"><g><path d="M 16.03125 -19.8125 C 18.132812 -19.8125 19.753906 -19.351562 20.890625 -18.4375 C 22.035156 -17.53125 22.609375 -16.320312 22.609375 -14.8125 C 22.609375 -14.21875 22.519531 -13.59375 22.34375 -12.9375 C 21.789062 -10.957031 20.691406 -9.488281 19.046875 -8.53125 C 17.410156 -7.582031 15.347656 -7.109375 12.859375 -7.109375 L 9.78125 -7.109375 L 8.78125 -3.515625 C 8.738281 -3.390625 8.71875 -3.226562 8.71875 -3.03125 C 8.71875 -2.757812 8.78125 -2.53125 8.90625 -2.34375 C 9.039062 -2.164062 9.234375 -1.957031 9.484375 -1.71875 C 9.703125 -1.519531 9.851562 -1.367188 9.9375 -1.265625 C 10.019531 -1.171875 10.0625 -1.054688 10.0625 -0.921875 C 10.0625 -0.585938 9.898438 -0.347656 9.578125 -0.203125 C 9.265625 -0.0664062 8.800781 0 8.1875 0 L 0.71875 0 C 0.195312 0 -0.1875 -0.09375 -0.4375 -0.28125 C -0.695312 -0.46875 -0.789062 -0.734375 -0.71875 -1.078125 C -0.675781 -1.253906 -0.597656 -1.394531 -0.484375 -1.5 C -0.378906 -1.613281 -0.21875 -1.738281 0 -1.875 C 0.332031 -2.070312 0.597656 -2.28125 0.796875 -2.5 C 0.992188 -2.71875 1.15625 -3.054688 1.28125 -3.515625 L 4.90625 -16.328125 C 4.988281 -16.585938 5.03125 -16.835938 5.03125 -17.078125 C 5.03125 -17.296875 4.992188 -17.476562 4.921875 -17.625 C 4.847656 -17.769531 4.753906 -17.941406 4.640625 -18.140625 C 4.460938 -18.398438 4.375 -18.609375 4.375 -18.765625 C 4.375 -18.828125 4.394531 -18.9375 4.4375 -19.09375 C 4.507812 -19.351562 4.679688 -19.535156 4.953125 -19.640625 C 5.222656 -19.753906 5.632812 -19.8125 6.1875 -19.8125 Z M 15.265625 -13.484375 C 15.484375 -14.210938 15.59375 -14.851562 15.59375 -15.40625 C 15.59375 -16.5625 15.054688 -17.140625 13.984375 -17.140625 L 12.640625 -17.140625 L 10.53125 -9.78125 L 11.84375 -9.78125 C 12.675781 -9.78125 13.351562 -10.039062 13.875 -10.5625 C 14.40625 -11.09375 14.867188 -12.066406 15.265625 -13.484375 Z M 15.265625 -13.484375 "/></g></g></g><g fill="#ff3f4b" fill-opacity="1"><g transform="translate(121.172449, 47.781935)"><g><path d="M 22.734375 -13.78125 C 22.410156 -12.625 21.8125 -11.722656 20.9375 -11.078125 C 20.070312 -10.429688 18.972656 -10.03125 17.640625 -9.875 C 18.585938 -9.800781 19.300781 -9.523438 19.78125 -9.046875 C 20.257812 -8.566406 20.5 -7.941406 20.5 -7.171875 C 20.5 -6.867188 20.445312 -6.5 20.34375 -6.0625 L 20.015625 -4.609375 C 19.984375 -4.410156 19.96875 -4.269531 19.96875 -4.1875 C 19.96875 -3.9375 20.023438 -3.742188 20.140625 -3.609375 C 20.253906 -3.484375 20.421875 -3.421875 20.640625 -3.421875 C 21.054688 -3.421875 21.359375 -3.359375 21.546875 -3.234375 C 21.742188 -3.117188 21.8125 -2.90625 21.75 -2.59375 C 21.664062 -2.132812 21.425781 -1.6875 21.03125 -1.25 C 20.632812 -0.8125 20.070312 -0.445312 19.34375 -0.15625 C 18.625 0.125 17.75 0.265625 16.71875 0.265625 C 15.40625 0.265625 14.363281 -0.0234375 13.59375 -0.609375 C 12.820312 -1.191406 12.4375 -2.03125 12.4375 -3.125 C 12.4375 -3.539062 12.492188 -3.988281 12.609375 -4.46875 L 13.09375 -6.359375 C 13.164062 -6.617188 13.203125 -6.890625 13.203125 -7.171875 C 13.203125 -7.628906 13.046875 -7.957031 12.734375 -8.15625 C 12.429688 -8.351562 11.945312 -8.453125 11.28125 -8.453125 L 10.140625 -8.453125 L 8.78125 -3.515625 C 8.738281 -3.390625 8.71875 -3.238281 8.71875 -3.0625 C 8.71875 -2.78125 8.785156 -2.539062 8.921875 -2.34375 C 9.066406 -2.144531 9.253906 -1.9375 9.484375 -1.71875 C 9.671875 -1.582031 9.8125 -1.445312 9.90625 -1.3125 C 10.007812 -1.1875 10.0625 -1.054688 10.0625 -0.921875 C 10.0625 -0.585938 9.898438 -0.347656 9.578125 -0.203125 C 9.265625 -0.0664062 8.800781 0 8.1875 0 L 0.71875 0 C 0.195312 0 -0.1875 -0.09375 -0.4375 -0.28125 C -0.695312 -0.46875 -0.789062 -0.734375 -0.71875 -1.078125 C -0.675781 -1.253906 -0.597656 -1.394531 -0.484375 -1.5 C -0.378906 -1.613281 -0.21875 -1.738281 0 -1.875 C 0.332031 -2.070312 0.597656 -2.28125 0.796875 -2.5 C 0.992188 -2.71875 1.15625 -3.054688 1.28125 -3.515625 L 4.90625 -16.328125 C 4.988281 -16.585938 5.03125 -16.835938 5.03125 -17.078125 C 5.03125 -17.296875 4.992188 -17.476562 4.921875 -17.625 C 4.847656 -17.769531 4.753906 -17.941406 4.640625 -18.140625 C 4.460938 -18.398438 4.375 -18.609375 4.375 -18.765625 C 4.375 -18.828125 4.394531 -18.9375 4.4375 -19.09375 C 4.507812 -19.351562 4.679688 -19.535156 4.953125 -19.640625 C 5.222656 -19.753906 5.632812 -19.8125 6.1875 -19.8125 L 16.15625 -19.8125 C 17.519531 -19.8125 18.710938 -19.601562 19.734375 -19.1875 C 20.753906 -18.769531 21.535156 -18.195312 22.078125 -17.46875 C 22.628906 -16.75 22.90625 -15.9375 22.90625 -15.03125 C 22.90625 -14.613281 22.847656 -14.195312 22.734375 -13.78125 Z M 15.109375 -14.078125 C 15.210938 -14.523438 15.265625 -14.867188 15.265625 -15.109375 C 15.265625 -16.160156 14.6875 -16.6875 13.53125 -16.6875 L 12.28125 -16.6875 L 10.984375 -11.421875 L 12.234375 -11.421875 C 13.003906 -11.421875 13.609375 -11.609375 14.046875 -11.984375 C 14.492188 -12.359375 14.847656 -13.054688 15.109375 -14.078125 Z M 15.109375 -14.078125 "/></g></g></g><g fill="#ff3f4b" fill-opacity="1"><g transform="translate(143.751944, 47.781935)"><g><path d="M 19.421875 -19.8125 C 20.160156 -19.8125 20.734375 -19.648438 21.140625 -19.328125 C 21.546875 -19.015625 21.75 -18.582031 21.75 -18.03125 C 21.75 -17.75 21.707031 -17.476562 21.625 -17.21875 L 20.859375 -14.453125 C 20.710938 -13.921875 20.503906 -13.550781 20.234375 -13.34375 C 19.972656 -13.132812 19.59375 -13.03125 19.09375 -13.03125 C 18.625 -13.03125 18.253906 -13.132812 17.984375 -13.34375 C 17.710938 -13.550781 17.507812 -13.894531 17.375 -14.375 L 16.890625 -16.0625 C 16.796875 -16.414062 16.675781 -16.648438 16.53125 -16.765625 C 16.394531 -16.890625 16.128906 -16.953125 15.734375 -16.953125 L 12.609375 -16.953125 L 11.125 -11.65625 L 12.4375 -11.65625 C 12.570312 -11.65625 12.757812 -11.753906 13 -11.953125 L 14.015625 -12.859375 C 14.304688 -13.109375 14.5625 -13.289062 14.78125 -13.40625 C 15 -13.53125 15.269531 -13.59375 15.59375 -13.59375 C 15.945312 -13.59375 16.238281 -13.5 16.46875 -13.3125 C 16.695312 -13.125 16.8125 -12.878906 16.8125 -12.578125 C 16.8125 -12.503906 16.789062 -12.390625 16.75 -12.234375 L 15.53125 -8.09375 C 15.40625 -7.65625 15.195312 -7.332031 14.90625 -7.125 C 14.625 -6.914062 14.316406 -6.8125 13.984375 -6.8125 C 13.429688 -6.8125 13.015625 -7.097656 12.734375 -7.671875 L 12.234375 -8.71875 C 12.085938 -9.007812 11.867188 -9.15625 11.578125 -9.15625 L 10.40625 -9.15625 L 8.65625 -2.859375 L 11.28125 -2.859375 C 11.65625 -2.859375 11.984375 -2.929688 12.265625 -3.078125 C 12.554688 -3.222656 12.867188 -3.488281 13.203125 -3.875 L 15 -5.828125 C 15.3125 -6.171875 15.609375 -6.414062 15.890625 -6.5625 C 16.179688 -6.707031 16.535156 -6.78125 16.953125 -6.78125 C 17.390625 -6.78125 17.742188 -6.679688 18.015625 -6.484375 C 18.296875 -6.285156 18.4375 -5.988281 18.4375 -5.59375 C 18.4375 -5.4375 18.410156 -5.25 18.359375 -5.03125 L 17.5 -2.015625 C 17.28125 -1.265625 16.960938 -0.738281 16.546875 -0.4375 C 16.128906 -0.144531 15.519531 0 14.71875 0 L 0.53125 0 C 0.113281 0 -0.207031 -0.0664062 -0.4375 -0.203125 C -0.664062 -0.347656 -0.78125 -0.539062 -0.78125 -0.78125 C -0.78125 -0.894531 -0.75 -1.019531 -0.6875 -1.15625 C -0.601562 -1.375 -0.472656 -1.539062 -0.296875 -1.65625 C -0.117188 -1.78125 -0.0078125 -1.851562 0.03125 -1.875 C 0.34375 -2.070312 0.597656 -2.273438 0.796875 -2.484375 C 0.992188 -2.691406 1.164062 -3.035156 1.3125 -3.515625 L 4.96875 -16.328125 C 5.050781 -16.585938 5.09375 -16.828125 5.09375 -17.046875 C 5.09375 -17.285156 5.054688 -17.484375 4.984375 -17.640625 C 4.910156 -17.796875 4.804688 -17.960938 4.671875 -18.140625 C 4.492188 -18.398438 4.40625 -18.609375 4.40625 -18.765625 C 4.40625 -18.828125 4.425781 -18.9375 4.46875 -19.09375 C 4.539062 -19.351562 4.71875 -19.535156 5 -19.640625 C 5.28125 -19.753906 5.6875 -19.8125 6.21875 -19.8125 Z M 19.421875 -19.8125 "/></g></g></g><g fill="#ff3f4b" fill-opacity="1"><g transform="translate(163.713533, 47.781935)"><g><path d="M 11.125 -19.984375 C 12.238281 -19.984375 13.265625 -19.847656 14.203125 -19.578125 C 15.148438 -19.316406 16.109375 -18.898438 17.078125 -18.328125 L 17.765625 -18.890625 C 18.234375 -19.265625 18.617188 -19.519531 18.921875 -19.65625 C 19.234375 -19.800781 19.585938 -19.875 19.984375 -19.875 C 20.460938 -19.875 20.84375 -19.769531 21.125 -19.5625 C 21.40625 -19.351562 21.546875 -19.050781 21.546875 -18.65625 C 21.546875 -18.5 21.515625 -18.328125 21.453125 -18.140625 L 20.203125 -14.046875 C 20.054688 -13.566406 19.878906 -13.226562 19.671875 -13.03125 C 19.472656 -12.832031 19.164062 -12.734375 18.75 -12.734375 C 18.3125 -12.734375 17.925781 -12.863281 17.59375 -13.125 C 17.269531 -13.394531 16.757812 -13.945312 16.0625 -14.78125 C 15.375 -15.570312 14.742188 -16.128906 14.171875 -16.453125 C 13.609375 -16.785156 13.03125 -16.953125 12.4375 -16.953125 C 12 -16.953125 11.628906 -16.804688 11.328125 -16.515625 C 11.035156 -16.234375 10.890625 -15.882812 10.890625 -15.46875 C 10.890625 -14.988281 11.125 -14.546875 11.59375 -14.140625 C 12.070312 -13.734375 12.816406 -13.222656 13.828125 -12.609375 C 14.859375 -11.992188 15.710938 -11.4375 16.390625 -10.9375 C 17.066406 -10.445312 17.640625 -9.832031 18.109375 -9.09375 C 18.585938 -8.363281 18.828125 -7.523438 18.828125 -6.578125 C 18.828125 -5.960938 18.726562 -5.347656 18.53125 -4.734375 C 18.0625 -3.140625 17.140625 -1.929688 15.765625 -1.109375 C 14.398438 -0.285156 12.804688 0.125 10.984375 0.125 C 9.609375 0.125 8.453125 -0.03125 7.515625 -0.34375 C 6.585938 -0.664062 5.640625 -1.207031 4.671875 -1.96875 L 3.59375 -1.078125 C 3.101562 -0.660156 2.695312 -0.375 2.375 -0.21875 C 2.0625 -0.0703125 1.707031 0 1.3125 0 C 0.851562 0 0.488281 -0.109375 0.21875 -0.328125 C -0.0390625 -0.546875 -0.171875 -0.84375 -0.171875 -1.21875 C -0.171875 -1.414062 -0.132812 -1.625 -0.0625 -1.84375 L 1.390625 -6.28125 C 1.554688 -6.789062 1.773438 -7.15625 2.046875 -7.375 C 2.328125 -7.59375 2.6875 -7.703125 3.125 -7.703125 C 3.582031 -7.703125 3.992188 -7.539062 4.359375 -7.21875 C 4.722656 -6.90625 5.203125 -6.332031 5.796875 -5.5 C 6.429688 -4.59375 7.019531 -3.957031 7.5625 -3.59375 C 8.113281 -3.238281 8.765625 -3.0625 9.515625 -3.0625 C 10.054688 -3.0625 10.46875 -3.144531 10.75 -3.3125 C 11.039062 -3.476562 11.242188 -3.753906 11.359375 -4.140625 C 11.398438 -4.234375 11.421875 -4.378906 11.421875 -4.578125 C 11.421875 -5.054688 11.191406 -5.492188 10.734375 -5.890625 C 10.285156 -6.285156 9.582031 -6.757812 8.625 -7.3125 C 7.613281 -7.925781 6.789062 -8.476562 6.15625 -8.96875 C 5.519531 -9.457031 4.96875 -10.066406 4.5 -10.796875 C 4.039062 -11.535156 3.8125 -12.398438 3.8125 -13.390625 C 3.8125 -14.078125 3.921875 -14.757812 4.140625 -15.4375 C 4.554688 -16.8125 5.40625 -17.910156 6.6875 -18.734375 C 7.976562 -19.566406 9.457031 -19.984375 11.125 -19.984375 Z M 11.125 -19.984375 "/></g></g></g><g fill="#ff3f4b" fill-opacity="1"><g transform="translate(184.210594, 47.781935)"><g><path d="M 11.125 -19.984375 C 12.238281 -19.984375 13.265625 -19.847656 14.203125 -19.578125 C 15.148438 -19.316406 16.109375 -18.898438 17.078125 -18.328125 L 17.765625 -18.890625 C 18.234375 -19.265625 18.617188 -19.519531 18.921875 -19.65625 C 19.234375 -19.800781 19.585938 -19.875 19.984375 -19.875 C 20.460938 -19.875 20.84375 -19.769531 21.125 -19.5625 C 21.40625 -19.351562 21.546875 -19.050781 21.546875 -18.65625 C 21.546875 -18.5 21.515625 -18.328125 21.453125 -18.140625 L 20.203125 -14.046875 C 20.054688 -13.566406 19.878906 -13.226562 19.671875 -13.03125 C 19.472656 -12.832031 19.164062 -12.734375 18.75 -12.734375 C 18.3125 -12.734375 17.925781 -12.863281 17.59375 -13.125 C 17.269531 -13.394531 16.757812 -13.945312 16.0625 -14.78125 C 15.375 -15.570312 14.742188 -16.128906 14.171875 -16.453125 C 13.609375 -16.785156 13.03125 -16.953125 12.4375 -16.953125 C 12 -16.953125 11.628906 -16.804688 11.328125 -16.515625 C 11.035156 -16.234375 10.890625 -15.882812 10.890625 -15.46875 C 10.890625 -14.988281 11.125 -14.546875 11.59375 -14.140625 C 12.070312 -13.734375 12.816406 -13.222656 13.828125 -12.609375 C 14.859375 -11.992188 15.710938 -11.4375 16.390625 -10.9375 C 17.066406 -10.445312 17.640625 -9.832031 18.109375 -9.09375 C 18.585938 -8.363281 18.828125 -7.523438 18.828125 -6.578125 C 18.828125 -5.960938 18.726562 -5.347656 18.53125 -4.734375 C 18.0625 -3.140625 17.140625 -1.929688 15.765625 -1.109375 C 14.398438 -0.285156 12.804688 0.125 10.984375 0.125 C 9.609375 0.125 8.453125 -0.03125 7.515625 -0.34375 C 6.585938 -0.664062 5.640625 -1.207031 4.671875 -1.96875 L 3.59375 -1.078125 C 3.101562 -0.660156 2.695312 -0.375 2.375 -0.21875 C 2.0625 -0.0703125 1.707031 0 1.3125 0 C 0.851562 0 0.488281 -0.109375 0.21875 -0.328125 C -0.0390625 -0.546875 -0.171875 -0.84375 -0.171875 -1.21875 C -0.171875 -1.414062 -0.132812 -1.625 -0.0625 -1.84375 L 1.390625 -6.28125 C 1.554688 -6.789062 1.773438 -7.15625 2.046875 -7.375 C 2.328125 -7.59375 2.6875 -7.703125 3.125 -7.703125 C 3.582031 -7.703125 3.992188 -7.539062 4.359375 -7.21875 C 4.722656 -6.90625 5.203125 -6.332031 5.796875 -5.5 C 6.429688 -4.59375 7.019531 -3.957031 7.5625 -3.59375 C 8.113281 -3.238281 8.765625 -3.0625 9.515625 -3.0625 C 10.054688 -3.0625 10.46875 -3.144531 10.75 -3.3125 C 11.039062 -3.476562 11.242188 -3.753906 11.359375 -4.140625 C 11.398438 -4.234375 11.421875 -4.378906 11.421875 -4.578125 C 11.421875 -5.054688 11.191406 -5.492188 10.734375 -5.890625 C 10.285156 -6.285156 9.582031 -6.757812 8.625 -7.3125 C 7.613281 -7.925781 6.789062 -8.476562 6.15625 -8.96875 C 5.519531 -9.457031 4.96875 -10.066406 4.5 -10.796875 C 4.039062 -11.535156 3.8125 -12.398438 3.8125 -13.390625 C 3.8125 -14.078125 3.921875 -14.757812 4.140625 -15.4375 C 4.554688 -16.8125 5.40625 -17.910156 6.6875 -18.734375 C 7.976562 -19.566406 9.457031 -19.984375 11.125 -19.984375 Z M 11.125 -19.984375 "/></g></g></g><g fill="#ffffff" fill-opacity="1"><g transform="translate(49.198733, 24.54679)"><g><path d="M 13.890625 -17.171875 C 15.710938 -17.171875 17.117188 -16.773438 18.109375 -15.984375 C 19.097656 -15.191406 19.59375 -14.144531 19.59375 -12.84375 C 19.59375 -12.320312 19.515625 -11.78125 19.359375 -11.21875 C 18.878906 -9.5 17.929688 -8.222656 16.515625 -7.390625 C 15.097656 -6.566406 13.304688 -6.15625 11.140625 -6.15625 L 8.484375 -6.15625 L 7.609375 -3.046875 C 7.566406 -2.941406 7.546875 -2.800781 7.546875 -2.625 C 7.546875 -2.382812 7.601562 -2.1875 7.71875 -2.03125 C 7.832031 -1.875 8 -1.695312 8.21875 -1.5 C 8.40625 -1.320312 8.535156 -1.191406 8.609375 -1.109375 C 8.679688 -1.023438 8.71875 -0.921875 8.71875 -0.796875 C 8.71875 -0.503906 8.578125 -0.296875 8.296875 -0.171875 C 8.023438 -0.0546875 7.625 0 7.09375 0 L 0.625 0 C 0.175781 0 -0.15625 -0.078125 -0.375 -0.234375 C -0.601562 -0.398438 -0.6875 -0.628906 -0.625 -0.921875 C -0.582031 -1.078125 -0.515625 -1.203125 -0.421875 -1.296875 C -0.328125 -1.390625 -0.1875 -1.5 0 -1.625 C 0.289062 -1.789062 0.519531 -1.96875 0.6875 -2.15625 C 0.863281 -2.351562 1.003906 -2.648438 1.109375 -3.046875 L 4.25 -14.15625 C 4.320312 -14.375 4.359375 -14.585938 4.359375 -14.796875 C 4.359375 -14.984375 4.328125 -15.140625 4.265625 -15.265625 C 4.203125 -15.398438 4.117188 -15.550781 4.015625 -15.71875 C 3.867188 -15.945312 3.796875 -16.128906 3.796875 -16.265625 C 3.796875 -16.316406 3.8125 -16.410156 3.84375 -16.546875 C 3.90625 -16.773438 4.050781 -16.9375 4.28125 -17.03125 C 4.519531 -17.125 4.878906 -17.171875 5.359375 -17.171875 Z M 13.21875 -11.671875 C 13.414062 -12.304688 13.515625 -12.867188 13.515625 -13.359375 C 13.515625 -14.347656 13.046875 -14.84375 12.109375 -14.84375 L 10.953125 -14.84375 L 9.125 -8.484375 L 10.265625 -8.484375 C 10.984375 -8.484375 11.566406 -8.707031 12.015625 -9.15625 C 12.472656 -9.613281 12.875 -10.453125 13.21875 -11.671875 Z M 13.21875 -11.671875 "/></g></g></g><g fill="#ffffff" fill-opacity="1"><g transform="translate(73.325883, 24.54679)"><g><path d="M 11.453125 -17.171875 C 11.804688 -17.171875 12.082031 -17.113281 12.28125 -17 C 12.476562 -16.882812 12.578125 -16.726562 12.578125 -16.53125 C 12.578125 -16.4375 12.550781 -16.320312 12.5 -16.1875 C 12.445312 -16.070312 12.375 -15.960938 12.28125 -15.859375 C 12.1875 -15.765625 12.097656 -15.695312 12.015625 -15.65625 C 11.941406 -15.613281 11.890625 -15.578125 11.859375 -15.546875 C 11.585938 -15.390625 11.363281 -15.21875 11.1875 -15.03125 C 11.019531 -14.84375 10.875 -14.550781 10.75 -14.15625 L 7.625 -3.046875 C 7.5625 -2.816406 7.53125 -2.597656 7.53125 -2.390625 C 7.53125 -2.191406 7.554688 -2.019531 7.609375 -1.875 C 7.671875 -1.738281 7.765625 -1.59375 7.890625 -1.4375 C 8.046875 -1.21875 8.125 -1.039062 8.125 -0.90625 C 8.125 -0.863281 8.101562 -0.773438 8.0625 -0.640625 C 8 -0.398438 7.847656 -0.234375 7.609375 -0.140625 C 7.367188 -0.046875 7.003906 0 6.515625 0 L 0.46875 0 C 0.101562 0 -0.175781 -0.0546875 -0.375 -0.171875 C -0.570312 -0.296875 -0.671875 -0.460938 -0.671875 -0.671875 C -0.671875 -0.773438 -0.644531 -0.882812 -0.59375 -1 C -0.519531 -1.1875 -0.40625 -1.332031 -0.25 -1.4375 C -0.101562 -1.539062 -0.0078125 -1.601562 0.03125 -1.625 C 0.300781 -1.789062 0.519531 -1.960938 0.6875 -2.140625 C 0.863281 -2.328125 1.015625 -2.628906 1.140625 -3.046875 L 4.28125 -14.15625 C 4.34375 -14.375 4.375 -14.585938 4.375 -14.796875 C 4.375 -14.984375 4.34375 -15.140625 4.28125 -15.265625 C 4.226562 -15.398438 4.148438 -15.550781 4.046875 -15.71875 C 3.890625 -15.945312 3.8125 -16.128906 3.8125 -16.265625 C 3.8125 -16.316406 3.828125 -16.410156 3.859375 -16.546875 C 3.929688 -16.773438 4.082031 -16.9375 4.3125 -17.03125 C 4.550781 -17.125 4.910156 -17.171875 5.390625 -17.171875 Z M 11.453125 -17.171875 "/></g></g></g><g fill="#ffffff" fill-opacity="1"><g transform="translate(90.261875, 24.54679)"><g><path d="M 18.234375 -17.171875 C 18.796875 -17.171875 19.25 -17.019531 19.59375 -16.71875 C 19.9375 -16.414062 20.109375 -16.035156 20.109375 -15.578125 C 20.109375 -14.921875 19.789062 -14.273438 19.15625 -13.640625 L 7.96875 -2.46875 L 11.015625 -2.46875 C 11.335938 -2.46875 11.625 -2.53125 11.875 -2.65625 C 12.125 -2.789062 12.394531 -3.019531 12.6875 -3.34375 L 14.234375 -5.046875 C 14.503906 -5.335938 14.765625 -5.546875 15.015625 -5.671875 C 15.265625 -5.804688 15.570312 -5.875 15.9375 -5.875 C 16.3125 -5.875 16.617188 -5.785156 16.859375 -5.609375 C 17.097656 -5.441406 17.21875 -5.1875 17.21875 -4.84375 C 17.21875 -4.707031 17.191406 -4.546875 17.140625 -4.359375 L 16.390625 -1.75 C 16.203125 -1.09375 15.925781 -0.632812 15.5625 -0.375 C 15.207031 -0.125 14.6875 0 14 0 L 2.453125 0 C 1.710938 0 1.15625 -0.148438 0.78125 -0.453125 C 0.414062 -0.753906 0.234375 -1.160156 0.234375 -1.671875 C 0.234375 -1.984375 0.3125 -2.289062 0.46875 -2.59375 C 0.632812 -2.894531 0.898438 -3.234375 1.265625 -3.609375 L 11.75 -14.6875 L 9.359375 -14.6875 C 9.035156 -14.6875 8.75 -14.625 8.5 -14.5 C 8.25 -14.375 7.976562 -14.144531 7.6875 -13.8125 L 6.140625 -12.109375 C 5.859375 -11.816406 5.59375 -11.609375 5.34375 -11.484375 C 5.09375 -11.359375 4.789062 -11.296875 4.4375 -11.296875 C 4.050781 -11.296875 3.738281 -11.378906 3.5 -11.546875 C 3.257812 -11.722656 3.140625 -11.984375 3.140625 -12.328125 C 3.140625 -12.484375 3.164062 -12.644531 3.21875 -12.8125 L 3.96875 -15.421875 C 4.15625 -16.066406 4.429688 -16.519531 4.796875 -16.78125 C 5.160156 -17.039062 5.6875 -17.171875 6.375 -17.171875 Z M 18.234375 -17.171875 "/></g></g></g><g fill="#ffffff" fill-opacity="1"><g transform="translate(115.703539, 24.54679)"><g><path d="M 18.234375 -17.171875 C 18.796875 -17.171875 19.25 -17.019531 19.59375 -16.71875 C 19.9375 -16.414062 20.109375 -16.035156 20.109375 -15.578125 C 20.109375 -14.921875 19.789062 -14.273438 19.15625 -13.640625 L 7.96875 -2.46875 L 11.015625 -2.46875 C 11.335938 -2.46875 11.625 -2.53125 11.875 -2.65625 C 12.125 -2.789062 12.394531 -3.019531 12.6875 -3.34375 L 14.234375 -5.046875 C 14.503906 -5.335938 14.765625 -5.546875 15.015625 -5.671875 C 15.265625 -5.804688 15.570312 -5.875 15.9375 -5.875 C 16.3125 -5.875 16.617188 -5.785156 16.859375 -5.609375 C 17.097656 -5.441406 17.21875 -5.1875 17.21875 -4.84375 C 17.21875 -4.707031 17.191406 -4.546875 17.140625 -4.359375 L 16.390625 -1.75 C 16.203125 -1.09375 15.925781 -0.632812 15.5625 -0.375 C 15.207031 -0.125 14.6875 0 14 0 L 2.453125 0 C 1.710938 0 1.15625 -0.148438 0.78125 -0.453125 C 0.414062 -0.753906 0.234375 -1.160156 0.234375 -1.671875 C 0.234375 -1.984375 0.3125 -2.289062 0.46875 -2.59375 C 0.632812 -2.894531 0.898438 -3.234375 1.265625 -3.609375 L 11.75 -14.6875 L 9.359375 -14.6875 C 9.035156 -14.6875 8.75 -14.625 8.5 -14.5 C 8.25 -14.375 7.976562 -14.144531 7.6875 -13.8125 L 6.140625 -12.109375 C 5.859375 -11.816406 5.59375 -11.609375 5.34375 -11.484375 C 5.09375 -11.359375 4.789062 -11.296875 4.4375 -11.296875 C 4.050781 -11.296875 3.738281 -11.378906 3.5 -11.546875 C 3.257812 -11.722656 3.140625 -11.984375 3.140625 -12.328125 C 3.140625 -12.484375 3.164062 -12.644531 3.21875 -12.8125 L 3.96875 -15.421875 C 4.15625 -16.066406 4.429688 -16.519531 4.796875 -16.78125 C 5.160156 -17.039062 5.6875 -17.171875 6.375 -17.171875 Z M 18.234375 -17.171875 "/></g></g></g><g fill="#ffffff" fill-opacity="1"><g transform="translate(141.145204, 24.54679)"><g><path d="M 15.75 -3.046875 C 15.6875 -2.816406 15.65625 -2.59375 15.65625 -2.375 C 15.65625 -2.1875 15.675781 -2.023438 15.71875 -1.890625 C 15.769531 -1.765625 15.828125 -1.660156 15.890625 -1.578125 C 15.953125 -1.503906 15.992188 -1.453125 16.015625 -1.421875 C 16.179688 -1.242188 16.265625 -1.070312 16.265625 -0.90625 C 16.265625 -0.863281 16.25 -0.773438 16.21875 -0.640625 C 16.144531 -0.398438 15.992188 -0.234375 15.765625 -0.140625 C 15.535156 -0.046875 15.175781 0 14.6875 0 L 8.578125 0 C 8.222656 0 7.945312 -0.0546875 7.75 -0.171875 C 7.550781 -0.296875 7.453125 -0.460938 7.453125 -0.671875 C 7.453125 -0.773438 7.476562 -0.882812 7.53125 -1 C 7.582031 -1.144531 7.65625 -1.253906 7.75 -1.328125 C 7.84375 -1.398438 7.972656 -1.488281 8.140625 -1.59375 C 8.421875 -1.75 8.644531 -1.921875 8.8125 -2.109375 C 8.988281 -2.296875 9.132812 -2.609375 9.25 -3.046875 L 9.921875 -5.265625 L 5.90625 -5.265625 L 5.203125 -3.796875 C 4.910156 -3.148438 4.765625 -2.648438 4.765625 -2.296875 C 4.765625 -2.085938 4.796875 -1.914062 4.859375 -1.78125 C 4.929688 -1.65625 5.039062 -1.523438 5.1875 -1.390625 C 5.300781 -1.253906 5.378906 -1.140625 5.421875 -1.046875 C 5.460938 -0.953125 5.46875 -0.828125 5.4375 -0.671875 C 5.375 -0.410156 5.234375 -0.234375 5.015625 -0.140625 C 4.796875 -0.046875 4.457031 0 4 0 L 0.15625 0 C -0.238281 0 -0.539062 -0.0703125 -0.75 -0.21875 C -0.957031 -0.363281 -1.0625 -0.554688 -1.0625 -0.796875 C -1.0625 -1.078125 -0.960938 -1.296875 -0.765625 -1.453125 C -0.566406 -1.617188 -0.269531 -1.796875 0.125 -1.984375 C 0.644531 -2.242188 1.054688 -2.5 1.359375 -2.75 C 1.671875 -3 1.941406 -3.347656 2.171875 -3.796875 L 6.75 -13.296875 C 7.457031 -14.773438 8.285156 -15.84375 9.234375 -16.5 C 10.191406 -17.164062 11.453125 -17.5 13.015625 -17.5 C 14.773438 -17.5 16.132812 -17.140625 17.09375 -16.421875 C 18.050781 -15.710938 18.53125 -14.722656 18.53125 -13.453125 C 18.53125 -12.921875 18.445312 -12.375 18.28125 -11.8125 Z M 10.703125 -7.84375 L 12.0625 -12.375 C 12.132812 -12.582031 12.171875 -12.796875 12.171875 -13.015625 C 12.171875 -13.347656 12.078125 -13.59375 11.890625 -13.75 C 11.710938 -13.914062 11.460938 -14 11.140625 -14 C 10.722656 -14 10.367188 -13.878906 10.078125 -13.640625 C 9.785156 -13.398438 9.492188 -12.96875 9.203125 -12.34375 L 7.09375 -7.84375 Z M 10.703125 -7.84375 "/></g></g></g><g fill="#ffffff" fill-opacity="1"><g transform="translate(165.658982, 24.54679)"><g><path d="M 19.703125 -11.9375 C 19.421875 -10.9375 18.898438 -10.15625 18.140625 -9.59375 C 17.390625 -9.039062 16.4375 -8.695312 15.28125 -8.5625 C 16.113281 -8.488281 16.734375 -8.242188 17.140625 -7.828125 C 17.554688 -7.421875 17.765625 -6.882812 17.765625 -6.21875 C 17.765625 -5.957031 17.722656 -5.640625 17.640625 -5.265625 L 17.34375 -4 C 17.3125 -3.820312 17.296875 -3.703125 17.296875 -3.640625 C 17.296875 -3.410156 17.347656 -3.238281 17.453125 -3.125 C 17.554688 -3.019531 17.703125 -2.96875 17.890625 -2.96875 C 18.253906 -2.96875 18.515625 -2.914062 18.671875 -2.8125 C 18.835938 -2.707031 18.894531 -2.519531 18.84375 -2.25 C 18.78125 -1.851562 18.578125 -1.460938 18.234375 -1.078125 C 17.890625 -0.703125 17.398438 -0.390625 16.765625 -0.140625 C 16.140625 0.109375 15.378906 0.234375 14.484375 0.234375 C 13.347656 0.234375 12.445312 -0.015625 11.78125 -0.515625 C 11.113281 -1.023438 10.78125 -1.753906 10.78125 -2.703125 C 10.78125 -3.066406 10.832031 -3.453125 10.9375 -3.859375 L 11.34375 -5.515625 C 11.414062 -5.742188 11.453125 -5.976562 11.453125 -6.21875 C 11.453125 -6.613281 11.316406 -6.894531 11.046875 -7.0625 C 10.773438 -7.238281 10.347656 -7.328125 9.765625 -7.328125 L 8.796875 -7.328125 L 7.609375 -3.046875 C 7.566406 -2.941406 7.546875 -2.8125 7.546875 -2.65625 C 7.546875 -2.414062 7.609375 -2.207031 7.734375 -2.03125 C 7.859375 -1.863281 8.019531 -1.6875 8.21875 -1.5 C 8.375 -1.375 8.492188 -1.253906 8.578125 -1.140625 C 8.671875 -1.035156 8.71875 -0.921875 8.71875 -0.796875 C 8.71875 -0.503906 8.578125 -0.296875 8.296875 -0.171875 C 8.023438 -0.0546875 7.625 0 7.09375 0 L 0.625 0 C 0.175781 0 -0.15625 -0.078125 -0.375 -0.234375 C -0.601562 -0.398438 -0.6875 -0.628906 -0.625 -0.921875 C -0.582031 -1.078125 -0.515625 -1.203125 -0.421875 -1.296875 C -0.328125 -1.390625 -0.1875 -1.5 0 -1.625 C 0.289062 -1.789062 0.519531 -1.96875 0.6875 -2.15625 C 0.863281 -2.351562 1.003906 -2.648438 1.109375 -3.046875 L 4.25 -14.15625 C 4.320312 -14.375 4.359375 -14.585938 4.359375 -14.796875 C 4.359375 -14.984375 4.328125 -15.140625 4.265625 -15.265625 C 4.203125 -15.398438 4.117188 -15.550781 4.015625 -15.71875 C 3.867188 -15.945312 3.796875 -16.128906 3.796875 -16.265625 C 3.796875 -16.316406 3.8125 -16.410156 3.84375 -16.546875 C 3.90625 -16.773438 4.050781 -16.9375 4.28125 -17.03125 C 4.519531 -17.125 4.878906 -17.171875 5.359375 -17.171875 L 14 -17.171875 C 15.1875 -17.171875 16.222656 -16.988281 17.109375 -16.625 C 17.992188 -16.269531 18.671875 -15.773438 19.140625 -15.140625 C 19.609375 -14.515625 19.84375 -13.804688 19.84375 -13.015625 C 19.84375 -12.660156 19.796875 -12.300781 19.703125 -11.9375 Z M 13.09375 -12.1875 C 13.175781 -12.582031 13.21875 -12.882812 13.21875 -13.09375 C 13.21875 -14.007812 12.722656 -14.46875 11.734375 -14.46875 L 10.640625 -14.46875 L 9.515625 -9.90625 L 10.59375 -9.90625 C 11.257812 -9.90625 11.785156 -10.066406 12.171875 -10.390625 C 12.566406 -10.710938 12.875 -11.3125 13.09375 -12.1875 Z M 13.09375 -12.1875 "/></g></g></g><g fill="#ffffff" fill-opacity="1"><g transform="translate(191.745018, 24.54679)"><g><path d="M 11.453125 -17.171875 C 11.804688 -17.171875 12.082031 -17.113281 12.28125 -17 C 12.476562 -16.882812 12.578125 -16.726562 12.578125 -16.53125 C 12.578125 -16.4375 12.550781 -16.320312 12.5 -16.1875 C 12.445312 -16.070312 12.375 -15.960938 12.28125 -15.859375 C 12.1875 -15.765625 12.097656 -15.695312 12.015625 -15.65625 C 11.941406 -15.613281 11.890625 -15.578125 11.859375 -15.546875 C 11.585938 -15.390625 11.363281 -15.21875 11.1875 -15.03125 C 11.019531 -14.84375 10.875 -14.550781 10.75 -14.15625 L 7.625 -3.046875 C 7.5625 -2.816406 7.53125 -2.597656 7.53125 -2.390625 C 7.53125 -2.191406 7.554688 -2.019531 7.609375 -1.875 C 7.671875 -1.738281 7.765625 -1.59375 7.890625 -1.4375 C 8.046875 -1.21875 8.125 -1.039062 8.125 -0.90625 C 8.125 -0.863281 8.101562 -0.773438 8.0625 -0.640625 C 8 -0.398438 7.847656 -0.234375 7.609375 -0.140625 C 7.367188 -0.046875 7.003906 0 6.515625 0 L 0.46875 0 C 0.101562 0 -0.175781 -0.0546875 -0.375 -0.171875 C -0.570312 -0.296875 -0.671875 -0.460938 -0.671875 -0.671875 C -0.671875 -0.773438 -0.644531 -0.882812 -0.59375 -1 C -0.519531 -1.1875 -0.40625 -1.332031 -0.25 -1.4375 C -0.101562 -1.539062 -0.0078125 -1.601562 0.03125 -1.625 C 0.300781 -1.789062 0.519531 -1.960938 0.6875 -2.140625 C 0.863281 -2.328125 1.015625 -2.628906 1.140625 -3.046875 L 4.28125 -14.15625 C 4.34375 -14.375 4.375 -14.585938 4.375 -14.796875 C 4.375 -14.984375 4.34375 -15.140625 4.28125 -15.265625 C 4.226562 -15.398438 4.148438 -15.550781 4.046875 -15.71875 C 3.890625 -15.945312 3.8125 -16.128906 3.8125 -16.265625 C 3.8125 -16.316406 3.828125 -16.410156 3.859375 -16.546875 C 3.929688 -16.773438 4.082031 -16.9375 4.3125 -17.03125 C 4.550781 -17.125 4.910156 -17.171875 5.390625 -17.171875 Z M 11.453125 -17.171875 "/></g></g></g><g fill="#ffffff" fill-opacity="1"><g transform="translate(208.68101, 24.54679)"><g><path d="M 15.75 -3.046875 C 15.6875 -2.816406 15.65625 -2.59375 15.65625 -2.375 C 15.65625 -2.1875 15.675781 -2.023438 15.71875 -1.890625 C 15.769531 -1.765625 15.828125 -1.660156 15.890625 -1.578125 C 15.953125 -1.503906 15.992188 -1.453125 16.015625 -1.421875 C 16.179688 -1.242188 16.265625 -1.070312 16.265625 -0.90625 C 16.265625 -0.863281 16.25 -0.773438 16.21875 -0.640625 C 16.144531 -0.398438 15.992188 -0.234375 15.765625 -0.140625 C 15.535156 -0.046875 15.175781 0 14.6875 0 L 8.578125 0 C 8.222656 0 7.945312 -0.0546875 7.75 -0.171875 C 7.550781 -0.296875 7.453125 -0.460938 7.453125 -0.671875 C 7.453125 -0.773438 7.476562 -0.882812 7.53125 -1 C 7.582031 -1.144531 7.65625 -1.253906 7.75 -1.328125 C 7.84375 -1.398438 7.972656 -1.488281 8.140625 -1.59375 C 8.421875 -1.75 8.644531 -1.921875 8.8125 -2.109375 C 8.988281 -2.296875 9.132812 -2.609375 9.25 -3.046875 L 9.921875 -5.265625 L 5.90625 -5.265625 L 5.203125 -3.796875 C 4.910156 -3.148438 4.765625 -2.648438 4.765625 -2.296875 C 4.765625 -2.085938 4.796875 -1.914062 4.859375 -1.78125 C 4.929688 -1.65625 5.039062 -1.523438 5.1875 -1.390625 C 5.300781 -1.253906 5.378906 -1.140625 5.421875 -1.046875 C 5.460938 -0.953125 5.46875 -0.828125 5.4375 -0.671875 C 5.375 -0.410156 5.234375 -0.234375 5.015625 -0.140625 C 4.796875 -0.046875 4.457031 0 4 0 L 0.15625 0 C -0.238281 0 -0.539062 -0.0703125 -0.75 -0.21875 C -0.957031 -0.363281 -1.0625 -0.554688 -1.0625 -0.796875 C -1.0625 -1.078125 -0.960938 -1.296875 -0.765625 -1.453125 C -0.566406 -1.617188 -0.269531 -1.796875 0.125 -1.984375 C 0.644531 -2.242188 1.054688 -2.5 1.359375 -2.75 C 1.671875 -3 1.941406 -3.347656 2.171875 -3.796875 L 6.75 -13.296875 C 7.457031 -14.773438 8.285156 -15.84375 9.234375 -16.5 C 10.191406 -17.164062 11.453125 -17.5 13.015625 -17.5 C 14.773438 -17.5 16.132812 -17.140625 17.09375 -16.421875 C 18.050781 -15.710938 18.53125 -14.722656 18.53125 -13.453125 C 18.53125 -12.921875 18.445312 -12.375 18.28125 -11.8125 Z M 10.703125 -7.84375 L 12.0625 -12.375 C 12.132812 -12.582031 12.171875 -12.796875 12.171875 -13.015625 C 12.171875 -13.347656 12.078125 -13.59375 11.890625 -13.75 C 11.710938 -13.914062 11.460938 -14 11.140625 -14 C 10.722656 -14 10.367188 -13.878906 10.078125 -13.640625 C 9.785156 -13.398438 9.492188 -12.96875 9.203125 -12.34375 L 7.09375 -7.84375 Z M 10.703125 -7.84375 "/></g></g></g><g clip-path="url(#5e652bcbbb)"><path fill="#ffffff" d="M 34.078125 27.601562 L 23.085938 46.566406 L 34.183594 46.566406 L 45.175781 27.601562 L 34.078125 27.601562 " fill-opacity="1" fill-rule="nonzero"/></g><g clip-path="url(#bd179e227c)"><path fill="#d9d9d9" d="M 39.199219 17.292969 L 28.105469 17.292969 L 34.078125 27.601562 L 45.175781 27.601562 L 39.199219 17.292969 " fill-opacity="1" fill-rule="nonzero"/></g><g clip-path="url(#db3b5b70b6)"><path fill="#ffffff" d="M 20.59375 8.636719 L 9.5 8.636719 L 20.488281 27.601562 L 31.585938 27.601562 L 20.59375 8.636719 " fill-opacity="1" fill-rule="nonzero"/></g><path fill="#d9d9d9" d="M 20.488281 27.601562 L 14.515625 37.90625 L 25.613281 37.90625 L 31.585938 27.601562 L 20.488281 27.601562 " fill-opacity="1" fill-rule="nonzero"/></svg>