<svg xmlns="http://www.w3.org/2000/svg" xmlns:xlink="http://www.w3.org/1999/xlink" width="309" zoomAndPan="magnify" viewBox="0 0 231.75 60" height="80" preserveAspectRatio="xMidYMid meet" version="1.0"><defs><g/></defs><g fill="#ff3f4b" fill-opacity="1"><g transform="translate(22.837386, 57.906739)"><g><path d="M 23.515625 -23.96875 C 24.398438 -23.96875 25.085938 -23.773438 25.578125 -23.390625 C 26.066406 -23.015625 26.3125 -22.488281 26.3125 -21.8125 C 26.3125 -21.476562 26.265625 -21.15625 26.171875 -20.84375 L 25.234375 -17.5 C 25.066406 -16.851562 24.820312 -16.398438 24.5 -16.140625 C 24.175781 -15.890625 23.710938 -15.765625 23.109375 -15.765625 C 22.535156 -15.765625 22.085938 -15.890625 21.765625 -16.140625 C 21.441406 -16.398438 21.195312 -16.816406 21.03125 -17.390625 L 20.453125 -19.4375 C 20.328125 -19.875 20.179688 -20.160156 20.015625 -20.296875 C 19.847656 -20.441406 19.523438 -20.515625 19.046875 -20.515625 L 15.265625 -20.515625 L 13.46875 -14.109375 L 15.046875 -14.109375 C 15.210938 -14.109375 15.441406 -14.226562 15.734375 -14.46875 L 16.953125 -15.546875 C 17.316406 -15.859375 17.628906 -16.085938 17.890625 -16.234375 C 18.148438 -16.378906 18.472656 -16.453125 18.859375 -16.453125 C 19.296875 -16.453125 19.648438 -16.335938 19.921875 -16.109375 C 20.203125 -15.878906 20.34375 -15.585938 20.34375 -15.234375 C 20.34375 -15.128906 20.316406 -14.984375 20.265625 -14.796875 L 18.796875 -9.796875 C 18.648438 -9.265625 18.398438 -8.875 18.046875 -8.625 C 17.703125 -8.375 17.328125 -8.25 16.921875 -8.25 C 16.242188 -8.25 15.738281 -8.59375 15.40625 -9.28125 L 14.796875 -10.546875 C 14.628906 -10.910156 14.363281 -11.09375 14 -11.09375 L 12.59375 -11.09375 L 10.46875 -3.453125 L 13.640625 -3.453125 C 14.097656 -3.453125 14.5 -3.539062 14.84375 -3.71875 C 15.195312 -3.90625 15.578125 -4.226562 15.984375 -4.6875 L 18.140625 -7.0625 C 18.523438 -7.46875 18.890625 -7.757812 19.234375 -7.9375 C 19.585938 -8.113281 20.015625 -8.203125 20.515625 -8.203125 C 21.046875 -8.203125 21.476562 -8.082031 21.8125 -7.84375 C 22.144531 -7.601562 22.3125 -7.242188 22.3125 -6.765625 C 22.3125 -6.578125 22.28125 -6.347656 22.21875 -6.078125 L 21.171875 -2.453125 C 20.898438 -1.535156 20.515625 -0.894531 20.015625 -0.53125 C 19.515625 -0.175781 18.78125 0 17.8125 0 L 0.640625 0 C 0.140625 0 -0.242188 -0.0820312 -0.515625 -0.25 C -0.796875 -0.414062 -0.9375 -0.644531 -0.9375 -0.9375 C -0.9375 -1.082031 -0.898438 -1.238281 -0.828125 -1.40625 C -0.734375 -1.664062 -0.578125 -1.867188 -0.359375 -2.015625 C -0.140625 -2.160156 -0.0078125 -2.242188 0.03125 -2.265625 C 0.414062 -2.503906 0.726562 -2.75 0.96875 -3 C 1.207031 -3.257812 1.410156 -3.675781 1.578125 -4.25 L 6.015625 -19.765625 C 6.109375 -20.078125 6.15625 -20.363281 6.15625 -20.625 C 6.15625 -20.914062 6.113281 -21.15625 6.03125 -21.34375 C 5.945312 -21.539062 5.820312 -21.742188 5.65625 -21.953125 C 5.4375 -22.265625 5.328125 -22.519531 5.328125 -22.71875 C 5.328125 -22.789062 5.351562 -22.921875 5.40625 -23.109375 C 5.5 -23.421875 5.710938 -23.640625 6.046875 -23.765625 C 6.378906 -23.898438 6.875 -23.96875 7.53125 -23.96875 Z M 23.515625 -23.96875 "/></g></g></g><g fill="#ff3f4b" fill-opacity="1"><g transform="translate(46.985517, 57.906739)"><g><path d="M 30.8125 -23.96875 C 31.363281 -23.96875 31.785156 -23.863281 32.078125 -23.65625 C 32.367188 -23.457031 32.515625 -23.191406 32.515625 -22.859375 C 32.515625 -22.710938 32.5 -22.601562 32.46875 -22.53125 C 32.394531 -22.21875 32.25 -21.984375 32.03125 -21.828125 C 31.820312 -21.671875 31.476562 -21.5 31 -21.3125 C 30.351562 -21.019531 29.769531 -20.734375 29.25 -20.453125 C 28.726562 -20.179688 28.132812 -19.757812 27.46875 -19.1875 L 20.296875 -13.109375 L 23.796875 -4.609375 C 24.035156 -4.035156 24.304688 -3.59375 24.609375 -3.28125 C 24.910156 -2.96875 25.273438 -2.664062 25.703125 -2.375 C 26.015625 -2.132812 26.226562 -1.945312 26.34375 -1.8125 C 26.46875 -1.6875 26.53125 -1.503906 26.53125 -1.265625 C 26.53125 -0.828125 26.382812 -0.503906 26.09375 -0.296875 C 25.8125 -0.0976562 25.332031 0 24.65625 0 L 14.96875 0 C 14.351562 0 13.894531 -0.0976562 13.59375 -0.296875 C 13.289062 -0.503906 13.140625 -0.773438 13.140625 -1.109375 C 13.140625 -1.253906 13.148438 -1.363281 13.171875 -1.4375 C 13.222656 -1.601562 13.304688 -1.753906 13.421875 -1.890625 C 13.546875 -2.023438 13.664062 -2.140625 13.78125 -2.234375 C 13.976562 -2.398438 14.125 -2.554688 14.21875 -2.703125 C 14.3125 -2.847656 14.359375 -3.050781 14.359375 -3.3125 C 14.359375 -3.71875 14.226562 -4.242188 13.96875 -4.890625 L 12.703125 -7.953125 L 9.4375 -4.890625 C 8.757812 -4.296875 8.421875 -3.757812 8.421875 -3.28125 C 8.421875 -3.0625 8.46875 -2.878906 8.5625 -2.734375 C 8.664062 -2.585938 8.820312 -2.394531 9.03125 -2.15625 C 9.25 -1.945312 9.410156 -1.742188 9.515625 -1.546875 C 9.628906 -1.359375 9.648438 -1.15625 9.578125 -0.9375 C 9.484375 -0.570312 9.285156 -0.320312 8.984375 -0.1875 C 8.679688 -0.0625 8.207031 0 7.5625 0 L 0.03125 0 C -0.519531 0 -0.9375 -0.0976562 -1.21875 -0.296875 C -1.507812 -0.503906 -1.65625 -0.773438 -1.65625 -1.109375 C -1.65625 -1.253906 -1.644531 -1.363281 -1.625 -1.4375 C -1.550781 -1.75 -1.40625 -1.984375 -1.1875 -2.140625 C -0.96875 -2.296875 -0.617188 -2.46875 -0.140625 -2.65625 C 0.523438 -2.945312 1.113281 -3.234375 1.625 -3.515625 C 2.144531 -3.804688 2.734375 -4.226562 3.390625 -4.78125 L 11.234375 -11.515625 L 7.984375 -19.375 C 7.742188 -19.945312 7.472656 -20.390625 7.171875 -20.703125 C 6.878906 -21.015625 6.515625 -21.3125 6.078125 -21.59375 C 5.765625 -21.832031 5.546875 -22.019531 5.421875 -22.15625 C 5.304688 -22.289062 5.25 -22.476562 5.25 -22.71875 C 5.25 -23.144531 5.394531 -23.457031 5.6875 -23.65625 C 5.976562 -23.863281 6.457031 -23.96875 7.125 -23.96875 L 16.8125 -23.96875 C 17.4375 -23.96875 17.894531 -23.863281 18.1875 -23.65625 C 18.488281 -23.457031 18.640625 -23.191406 18.640625 -22.859375 C 18.640625 -22.710938 18.628906 -22.601562 18.609375 -22.53125 C 18.566406 -22.363281 18.484375 -22.210938 18.359375 -22.078125 C 18.242188 -21.953125 18.125 -21.84375 18 -21.75 C 17.8125 -21.570312 17.664062 -21.410156 17.5625 -21.265625 C 17.46875 -21.128906 17.421875 -20.925781 17.421875 -20.65625 C 17.421875 -20.28125 17.550781 -19.753906 17.8125 -19.078125 L 18.828125 -16.671875 L 21.421875 -19.078125 C 22.117188 -19.703125 22.46875 -20.242188 22.46875 -20.703125 C 22.46875 -20.921875 22.410156 -21.101562 22.296875 -21.25 C 22.191406 -21.40625 22.03125 -21.59375 21.8125 -21.8125 C 21.769531 -21.863281 21.679688 -21.96875 21.546875 -22.125 C 21.410156 -22.28125 21.316406 -22.4375 21.265625 -22.59375 C 21.222656 -22.75 21.226562 -22.898438 21.28125 -23.046875 C 21.375 -23.398438 21.566406 -23.640625 21.859375 -23.765625 C 22.160156 -23.898438 22.640625 -23.96875 23.296875 -23.96875 Z M 30.8125 -23.96875 "/></g></g></g><g fill="#ff3f4b" fill-opacity="1"><g transform="translate(76.100028, 57.906739)"><g><path d="M 19.40625 -23.96875 C 21.945312 -23.96875 23.90625 -23.414062 25.28125 -22.3125 C 26.664062 -21.207031 27.359375 -19.742188 27.359375 -17.921875 C 27.359375 -17.203125 27.25 -16.445312 27.03125 -15.65625 C 26.363281 -13.257812 25.039062 -11.484375 23.0625 -10.328125 C 21.082031 -9.179688 18.578125 -8.609375 15.546875 -8.609375 L 11.84375 -8.609375 L 10.625 -4.25 C 10.570312 -4.101562 10.546875 -3.910156 10.546875 -3.671875 C 10.546875 -3.335938 10.625 -3.0625 10.78125 -2.84375 C 10.9375 -2.625 11.171875 -2.375 11.484375 -2.09375 C 11.742188 -1.851562 11.921875 -1.671875 12.015625 -1.546875 C 12.117188 -1.429688 12.171875 -1.285156 12.171875 -1.109375 C 12.171875 -0.703125 11.976562 -0.414062 11.59375 -0.25 C 11.207031 -0.0820312 10.644531 0 9.90625 0 L 0.859375 0 C 0.234375 0 -0.234375 -0.113281 -0.546875 -0.34375 C -0.859375 -0.570312 -0.960938 -0.890625 -0.859375 -1.296875 C -0.816406 -1.515625 -0.726562 -1.6875 -0.59375 -1.8125 C -0.457031 -1.945312 -0.257812 -2.097656 0 -2.265625 C 0.40625 -2.503906 0.726562 -2.753906 0.96875 -3.015625 C 1.207031 -3.285156 1.398438 -3.695312 1.546875 -4.25 L 5.9375 -19.765625 C 6.03125 -20.078125 6.078125 -20.375 6.078125 -20.65625 C 6.078125 -20.925781 6.035156 -21.148438 5.953125 -21.328125 C 5.867188 -21.503906 5.753906 -21.710938 5.609375 -21.953125 C 5.398438 -22.265625 5.296875 -22.519531 5.296875 -22.71875 C 5.296875 -22.789062 5.316406 -22.921875 5.359375 -23.109375 C 5.460938 -23.421875 5.675781 -23.640625 6 -23.765625 C 6.320312 -23.898438 6.816406 -23.96875 7.484375 -23.96875 Z M 18.46875 -16.3125 C 18.726562 -17.195312 18.859375 -17.972656 18.859375 -18.640625 C 18.859375 -20.035156 18.210938 -20.734375 16.921875 -20.734375 L 15.296875 -20.734375 L 12.75 -11.84375 L 14.328125 -11.84375 C 15.335938 -11.84375 16.160156 -12.160156 16.796875 -12.796875 C 17.429688 -13.429688 17.988281 -14.601562 18.46875 -16.3125 Z M 18.46875 -16.3125 "/></g></g></g><g fill="#ff3f4b" fill-opacity="1"><g transform="translate(100.680013, 57.906739)"><g><path d="M 27.5 -16.671875 C 27.113281 -15.273438 26.394531 -14.1875 25.34375 -13.40625 C 24.289062 -12.625 22.957031 -12.140625 21.34375 -11.953125 C 22.5 -11.859375 23.363281 -11.519531 23.9375 -10.9375 C 24.507812 -10.363281 24.796875 -9.609375 24.796875 -8.671875 C 24.796875 -8.316406 24.738281 -7.875 24.625 -7.34375 L 24.234375 -5.578125 C 24.179688 -5.335938 24.15625 -5.171875 24.15625 -5.078125 C 24.15625 -4.765625 24.226562 -4.53125 24.375 -4.375 C 24.519531 -4.21875 24.722656 -4.140625 24.984375 -4.140625 C 25.484375 -4.140625 25.847656 -4.066406 26.078125 -3.921875 C 26.304688 -3.773438 26.382812 -3.507812 26.3125 -3.125 C 26.21875 -2.570312 25.929688 -2.03125 25.453125 -1.5 C 24.972656 -0.976562 24.296875 -0.539062 23.421875 -0.1875 C 22.546875 0.15625 21.484375 0.328125 20.234375 0.328125 C 18.648438 0.328125 17.390625 -0.0234375 16.453125 -0.734375 C 15.515625 -1.441406 15.046875 -2.457031 15.046875 -3.78125 C 15.046875 -4.28125 15.117188 -4.820312 15.265625 -5.40625 L 15.84375 -7.703125 C 15.9375 -8.015625 15.984375 -8.335938 15.984375 -8.671875 C 15.984375 -9.222656 15.796875 -9.617188 15.421875 -9.859375 C 15.054688 -10.097656 14.460938 -10.21875 13.640625 -10.21875 L 12.28125 -10.21875 L 10.625 -4.25 C 10.570312 -4.101562 10.546875 -3.921875 10.546875 -3.703125 C 10.546875 -3.367188 10.628906 -3.082031 10.796875 -2.84375 C 10.960938 -2.601562 11.191406 -2.351562 11.484375 -2.09375 C 11.703125 -1.925781 11.867188 -1.765625 11.984375 -1.609375 C 12.109375 -1.453125 12.171875 -1.285156 12.171875 -1.109375 C 12.171875 -0.703125 11.976562 -0.414062 11.59375 -0.25 C 11.207031 -0.0820312 10.644531 0 9.90625 0 L 0.859375 0 C 0.234375 0 -0.234375 -0.113281 -0.546875 -0.34375 C -0.859375 -0.570312 -0.960938 -0.890625 -0.859375 -1.296875 C -0.816406 -1.515625 -0.726562 -1.6875 -0.59375 -1.8125 C -0.457031 -1.945312 -0.257812 -2.097656 0 -2.265625 C 0.40625 -2.503906 0.726562 -2.753906 0.96875 -3.015625 C 1.207031 -3.285156 1.398438 -3.695312 1.546875 -4.25 L 5.9375 -19.765625 C 6.03125 -20.078125 6.078125 -20.375 6.078125 -20.65625 C 6.078125 -20.925781 6.035156 -21.148438 5.953125 -21.328125 C 5.867188 -21.503906 5.753906 -21.710938 5.609375 -21.953125 C 5.398438 -22.265625 5.296875 -22.519531 5.296875 -22.71875 C 5.296875 -22.789062 5.316406 -22.921875 5.359375 -23.109375 C 5.460938 -23.421875 5.675781 -23.640625 6 -23.765625 C 6.320312 -23.898438 6.816406 -23.96875 7.484375 -23.96875 L 19.546875 -23.96875 C 21.203125 -23.96875 22.644531 -23.71875 23.875 -23.21875 C 25.113281 -22.71875 26.0625 -22.03125 26.71875 -21.15625 C 27.382812 -20.28125 27.71875 -19.289062 27.71875 -18.1875 C 27.71875 -17.675781 27.644531 -17.171875 27.5 -16.671875 Z M 18.28125 -17.03125 C 18.40625 -17.582031 18.46875 -18 18.46875 -18.28125 C 18.46875 -19.5625 17.769531 -20.203125 16.375 -20.203125 L 14.875 -20.203125 L 13.28125 -13.828125 L 14.796875 -13.828125 C 15.734375 -13.828125 16.46875 -14.050781 17 -14.5 C 17.539062 -14.957031 17.96875 -15.800781 18.28125 -17.03125 Z M 18.28125 -17.03125 "/></g></g></g><g fill="#ff3f4b" fill-opacity="1"><g transform="translate(127.995112, 57.906739)"><g><path d="M 23.515625 -23.96875 C 24.398438 -23.96875 25.085938 -23.773438 25.578125 -23.390625 C 26.066406 -23.015625 26.3125 -22.488281 26.3125 -21.8125 C 26.3125 -21.476562 26.265625 -21.15625 26.171875 -20.84375 L 25.234375 -17.5 C 25.066406 -16.851562 24.820312 -16.398438 24.5 -16.140625 C 24.175781 -15.890625 23.710938 -15.765625 23.109375 -15.765625 C 22.535156 -15.765625 22.085938 -15.890625 21.765625 -16.140625 C 21.441406 -16.398438 21.195312 -16.816406 21.03125 -17.390625 L 20.453125 -19.4375 C 20.328125 -19.875 20.179688 -20.160156 20.015625 -20.296875 C 19.847656 -20.441406 19.523438 -20.515625 19.046875 -20.515625 L 15.265625 -20.515625 L 13.46875 -14.109375 L 15.046875 -14.109375 C 15.210938 -14.109375 15.441406 -14.226562 15.734375 -14.46875 L 16.953125 -15.546875 C 17.316406 -15.859375 17.628906 -16.085938 17.890625 -16.234375 C 18.148438 -16.378906 18.472656 -16.453125 18.859375 -16.453125 C 19.296875 -16.453125 19.648438 -16.335938 19.921875 -16.109375 C 20.203125 -15.878906 20.34375 -15.585938 20.34375 -15.234375 C 20.34375 -15.128906 20.316406 -14.984375 20.265625 -14.796875 L 18.796875 -9.796875 C 18.648438 -9.265625 18.398438 -8.875 18.046875 -8.625 C 17.703125 -8.375 17.328125 -8.25 16.921875 -8.25 C 16.242188 -8.25 15.738281 -8.59375 15.40625 -9.28125 L 14.796875 -10.546875 C 14.628906 -10.910156 14.363281 -11.09375 14 -11.09375 L 12.59375 -11.09375 L 10.46875 -3.453125 L 13.640625 -3.453125 C 14.097656 -3.453125 14.5 -3.539062 14.84375 -3.71875 C 15.195312 -3.90625 15.578125 -4.226562 15.984375 -4.6875 L 18.140625 -7.0625 C 18.523438 -7.46875 18.890625 -7.757812 19.234375 -7.9375 C 19.585938 -8.113281 20.015625 -8.203125 20.515625 -8.203125 C 21.046875 -8.203125 21.476562 -8.082031 21.8125 -7.84375 C 22.144531 -7.601562 22.3125 -7.242188 22.3125 -6.765625 C 22.3125 -6.578125 22.28125 -6.347656 22.21875 -6.078125 L 21.171875 -2.453125 C 20.898438 -1.535156 20.515625 -0.894531 20.015625 -0.53125 C 19.515625 -0.175781 18.78125 0 17.8125 0 L 0.640625 0 C 0.140625 0 -0.242188 -0.0820312 -0.515625 -0.25 C -0.796875 -0.414062 -0.9375 -0.644531 -0.9375 -0.9375 C -0.9375 -1.082031 -0.898438 -1.238281 -0.828125 -1.40625 C -0.734375 -1.664062 -0.578125 -1.867188 -0.359375 -2.015625 C -0.140625 -2.160156 -0.0078125 -2.242188 0.03125 -2.265625 C 0.414062 -2.503906 0.726562 -2.75 0.96875 -3 C 1.207031 -3.257812 1.410156 -3.675781 1.578125 -4.25 L 6.015625 -19.765625 C 6.109375 -20.078125 6.15625 -20.363281 6.15625 -20.625 C 6.15625 -20.914062 6.113281 -21.15625 6.03125 -21.34375 C 5.945312 -21.539062 5.820312 -21.742188 5.65625 -21.953125 C 5.4375 -22.265625 5.328125 -22.519531 5.328125 -22.71875 C 5.328125 -22.789062 5.351562 -22.921875 5.40625 -23.109375 C 5.5 -23.421875 5.710938 -23.640625 6.046875 -23.765625 C 6.378906 -23.898438 6.875 -23.96875 7.53125 -23.96875 Z M 23.515625 -23.96875 "/></g></g></g><g fill="#ff3f4b" fill-opacity="1"><g transform="translate(152.143243, 57.906739)"><g><path d="M 13.46875 -24.1875 C 14.8125 -24.1875 16.050781 -24.023438 17.1875 -23.703125 C 18.332031 -23.378906 19.488281 -22.867188 20.65625 -22.171875 L 21.484375 -22.859375 C 22.066406 -23.316406 22.539062 -23.628906 22.90625 -23.796875 C 23.28125 -23.960938 23.707031 -24.046875 24.1875 -24.046875 C 24.769531 -24.046875 25.226562 -23.921875 25.5625 -23.671875 C 25.894531 -23.421875 26.0625 -23.054688 26.0625 -22.578125 C 26.0625 -22.378906 26.023438 -22.171875 25.953125 -21.953125 L 24.4375 -16.984375 C 24.269531 -16.410156 24.0625 -16.003906 23.8125 -15.765625 C 23.5625 -15.523438 23.1875 -15.40625 22.6875 -15.40625 C 22.15625 -15.40625 21.691406 -15.566406 21.296875 -15.890625 C 20.898438 -16.210938 20.28125 -16.878906 19.4375 -17.890625 C 18.601562 -18.847656 17.84375 -19.523438 17.15625 -19.921875 C 16.46875 -20.316406 15.765625 -20.515625 15.046875 -20.515625 C 14.515625 -20.515625 14.066406 -20.335938 13.703125 -19.984375 C 13.347656 -19.640625 13.171875 -19.21875 13.171875 -18.71875 C 13.171875 -18.144531 13.457031 -17.609375 14.03125 -17.109375 C 14.613281 -16.617188 15.515625 -16.003906 16.734375 -15.265625 C 17.984375 -14.515625 19.015625 -13.835938 19.828125 -13.234375 C 20.648438 -12.640625 21.347656 -11.898438 21.921875 -11.015625 C 22.492188 -10.128906 22.78125 -9.109375 22.78125 -7.953125 C 22.78125 -7.210938 22.660156 -6.46875 22.421875 -5.71875 C 21.847656 -3.800781 20.734375 -2.34375 19.078125 -1.34375 C 17.421875 -0.351562 15.488281 0.140625 13.28125 0.140625 C 11.625 0.140625 10.234375 -0.0507812 9.109375 -0.4375 C 7.984375 -0.820312 6.832031 -1.46875 5.65625 -2.375 L 4.359375 -1.296875 C 3.753906 -0.796875 3.257812 -0.453125 2.875 -0.265625 C 2.488281 -0.0859375 2.054688 0 1.578125 0 C 1.023438 0 0.585938 -0.128906 0.265625 -0.390625 C -0.0546875 -0.660156 -0.21875 -1.019531 -0.21875 -1.46875 C -0.21875 -1.71875 -0.171875 -1.972656 -0.078125 -2.234375 L 1.6875 -7.59375 C 1.882812 -8.21875 2.148438 -8.660156 2.484375 -8.921875 C 2.816406 -9.191406 3.25 -9.328125 3.78125 -9.328125 C 4.332031 -9.328125 4.828125 -9.132812 5.265625 -8.75 C 5.710938 -8.363281 6.296875 -7.664062 7.015625 -6.65625 C 7.785156 -5.550781 8.5 -4.78125 9.15625 -4.34375 C 9.820312 -3.914062 10.609375 -3.703125 11.515625 -3.703125 C 12.160156 -3.703125 12.65625 -3.800781 13 -4 C 13.351562 -4.207031 13.601562 -4.539062 13.75 -5 C 13.800781 -5.125 13.828125 -5.304688 13.828125 -5.546875 C 13.828125 -6.117188 13.550781 -6.644531 13 -7.125 C 12.445312 -7.601562 11.59375 -8.179688 10.4375 -8.859375 C 9.21875 -9.597656 8.222656 -10.257812 7.453125 -10.84375 C 6.679688 -11.4375 6.015625 -12.175781 5.453125 -13.0625 C 4.890625 -13.957031 4.609375 -15.003906 4.609375 -16.203125 C 4.609375 -17.035156 4.738281 -17.863281 5 -18.6875 C 5.507812 -20.34375 6.539062 -21.671875 8.09375 -22.671875 C 9.65625 -23.679688 11.445312 -24.1875 13.46875 -24.1875 Z M 13.46875 -24.1875 "/></g></g></g><g fill="#ff3f4b" fill-opacity="1"><g transform="translate(176.939155, 57.906739)"><g><path d="M 13.46875 -24.1875 C 14.8125 -24.1875 16.050781 -24.023438 17.1875 -23.703125 C 18.332031 -23.378906 19.488281 -22.867188 20.65625 -22.171875 L 21.484375 -22.859375 C 22.066406 -23.316406 22.539062 -23.628906 22.90625 -23.796875 C 23.28125 -23.960938 23.707031 -24.046875 24.1875 -24.046875 C 24.769531 -24.046875 25.226562 -23.921875 25.5625 -23.671875 C 25.894531 -23.421875 26.0625 -23.054688 26.0625 -22.578125 C 26.0625 -22.378906 26.023438 -22.171875 25.953125 -21.953125 L 24.4375 -16.984375 C 24.269531 -16.410156 24.0625 -16.003906 23.8125 -15.765625 C 23.5625 -15.523438 23.1875 -15.40625 22.6875 -15.40625 C 22.15625 -15.40625 21.691406 -15.566406 21.296875 -15.890625 C 20.898438 -16.210938 20.28125 -16.878906 19.4375 -17.890625 C 18.601562 -18.847656 17.84375 -19.523438 17.15625 -19.921875 C 16.46875 -20.316406 15.765625 -20.515625 15.046875 -20.515625 C 14.515625 -20.515625 14.066406 -20.335938 13.703125 -19.984375 C 13.347656 -19.640625 13.171875 -19.21875 13.171875 -18.71875 C 13.171875 -18.144531 13.457031 -17.609375 14.03125 -17.109375 C 14.613281 -16.617188 15.515625 -16.003906 16.734375 -15.265625 C 17.984375 -14.515625 19.015625 -13.835938 19.828125 -13.234375 C 20.648438 -12.640625 21.347656 -11.898438 21.921875 -11.015625 C 22.492188 -10.128906 22.78125 -9.109375 22.78125 -7.953125 C 22.78125 -7.210938 22.660156 -6.46875 22.421875 -5.71875 C 21.847656 -3.800781 20.734375 -2.34375 19.078125 -1.34375 C 17.421875 -0.351562 15.488281 0.140625 13.28125 0.140625 C 11.625 0.140625 10.234375 -0.0507812 9.109375 -0.4375 C 7.984375 -0.820312 6.832031 -1.46875 5.65625 -2.375 L 4.359375 -1.296875 C 3.753906 -0.796875 3.257812 -0.453125 2.875 -0.265625 C 2.488281 -0.0859375 2.054688 0 1.578125 0 C 1.023438 0 0.585938 -0.128906 0.265625 -0.390625 C -0.0546875 -0.660156 -0.21875 -1.019531 -0.21875 -1.46875 C -0.21875 -1.71875 -0.171875 -1.972656 -0.078125 -2.234375 L 1.6875 -7.59375 C 1.882812 -8.21875 2.148438 -8.660156 2.484375 -8.921875 C 2.816406 -9.191406 3.25 -9.328125 3.78125 -9.328125 C 4.332031 -9.328125 4.828125 -9.132812 5.265625 -8.75 C 5.710938 -8.363281 6.296875 -7.664062 7.015625 -6.65625 C 7.785156 -5.550781 8.5 -4.78125 9.15625 -4.34375 C 9.820312 -3.914062 10.609375 -3.703125 11.515625 -3.703125 C 12.160156 -3.703125 12.65625 -3.800781 13 -4 C 13.351562 -4.207031 13.601562 -4.539062 13.75 -5 C 13.800781 -5.125 13.828125 -5.304688 13.828125 -5.546875 C 13.828125 -6.117188 13.550781 -6.644531 13 -7.125 C 12.445312 -7.601562 11.59375 -8.179688 10.4375 -8.859375 C 9.21875 -9.597656 8.222656 -10.257812 7.453125 -10.84375 C 6.679688 -11.4375 6.015625 -12.175781 5.453125 -13.0625 C 4.890625 -13.957031 4.609375 -15.003906 4.609375 -16.203125 C 4.609375 -17.035156 4.738281 -17.863281 5 -18.6875 C 5.507812 -20.34375 6.539062 -21.671875 8.09375 -22.671875 C 9.65625 -23.679688 11.445312 -24.1875 13.46875 -24.1875 Z M 13.46875 -24.1875 "/></g></g></g><g fill="#ffffff" fill-opacity="1"><g transform="translate(8.903608, 27.956216)"><g><path d="M 17.09375 -21.109375 C 19.332031 -21.109375 21.054688 -20.625 22.265625 -19.65625 C 23.484375 -18.6875 24.09375 -17.394531 24.09375 -15.78125 C 24.09375 -15.15625 24 -14.492188 23.8125 -13.796875 C 23.21875 -11.679688 22.046875 -10.113281 20.296875 -9.09375 C 18.554688 -8.082031 16.359375 -7.578125 13.703125 -7.578125 L 10.4375 -7.578125 L 9.359375 -3.734375 C 9.304688 -3.609375 9.28125 -3.441406 9.28125 -3.234375 C 9.28125 -2.941406 9.347656 -2.695312 9.484375 -2.5 C 9.628906 -2.3125 9.835938 -2.09375 10.109375 -1.84375 C 10.347656 -1.625 10.507812 -1.460938 10.59375 -1.359375 C 10.675781 -1.253906 10.71875 -1.128906 10.71875 -0.984375 C 10.71875 -0.617188 10.546875 -0.363281 10.203125 -0.21875 C 9.867188 -0.0703125 9.375 0 8.71875 0 L 0.765625 0 C 0.210938 0 -0.195312 -0.0976562 -0.46875 -0.296875 C -0.75 -0.503906 -0.847656 -0.785156 -0.765625 -1.140625 C -0.722656 -1.328125 -0.640625 -1.476562 -0.515625 -1.59375 C -0.398438 -1.71875 -0.226562 -1.851562 0 -2 C 0.351562 -2.207031 0.632812 -2.425781 0.84375 -2.65625 C 1.0625 -2.894531 1.234375 -3.253906 1.359375 -3.734375 L 5.234375 -17.40625 C 5.316406 -17.675781 5.359375 -17.941406 5.359375 -18.203125 C 5.359375 -18.429688 5.320312 -18.625 5.25 -18.78125 C 5.175781 -18.9375 5.078125 -19.125 4.953125 -19.34375 C 4.753906 -19.613281 4.65625 -19.832031 4.65625 -20 C 4.65625 -20.0625 4.675781 -20.179688 4.71875 -20.359375 C 4.800781 -20.628906 4.984375 -20.820312 5.265625 -20.9375 C 5.554688 -21.050781 6 -21.109375 6.59375 -21.109375 Z M 16.265625 -14.359375 C 16.492188 -15.140625 16.609375 -15.828125 16.609375 -16.421875 C 16.609375 -17.648438 16.039062 -18.265625 14.90625 -18.265625 L 13.46875 -18.265625 L 11.21875 -10.4375 L 12.625 -10.4375 C 13.507812 -10.4375 14.226562 -10.710938 14.78125 -11.265625 C 15.34375 -11.828125 15.835938 -12.859375 16.265625 -14.359375 Z M 16.265625 -14.359375 "/></g></g></g><g fill="#ffffff" fill-opacity="1"><g transform="translate(38.572057, 27.956216)"><g><path d="M 14.078125 -21.109375 C 14.515625 -21.109375 14.851562 -21.039062 15.09375 -20.90625 C 15.34375 -20.769531 15.46875 -20.578125 15.46875 -20.328125 C 15.46875 -20.210938 15.4375 -20.070312 15.375 -19.90625 C 15.3125 -19.757812 15.222656 -19.628906 15.109375 -19.515625 C 14.992188 -19.398438 14.882812 -19.316406 14.78125 -19.265625 C 14.6875 -19.210938 14.617188 -19.160156 14.578125 -19.109375 C 14.242188 -18.921875 13.96875 -18.710938 13.75 -18.484375 C 13.539062 -18.253906 13.363281 -17.894531 13.21875 -17.40625 L 9.390625 -3.734375 C 9.296875 -3.460938 9.25 -3.203125 9.25 -2.953125 C 9.25 -2.691406 9.285156 -2.476562 9.359375 -2.3125 C 9.441406 -2.144531 9.554688 -1.96875 9.703125 -1.78125 C 9.890625 -1.5 9.984375 -1.273438 9.984375 -1.109375 C 9.984375 -1.066406 9.960938 -0.960938 9.921875 -0.796875 C 9.835938 -0.492188 9.644531 -0.285156 9.34375 -0.171875 C 9.050781 -0.0546875 8.609375 0 8.015625 0 L 0.578125 0 C 0.128906 0 -0.210938 -0.0703125 -0.453125 -0.21875 C -0.703125 -0.363281 -0.828125 -0.566406 -0.828125 -0.828125 C -0.828125 -0.953125 -0.796875 -1.085938 -0.734375 -1.234375 C -0.648438 -1.460938 -0.507812 -1.640625 -0.3125 -1.765625 C -0.125 -1.898438 -0.0078125 -1.976562 0.03125 -2 C 0.363281 -2.207031 0.632812 -2.421875 0.84375 -2.640625 C 1.0625 -2.867188 1.242188 -3.234375 1.390625 -3.734375 L 5.265625 -17.40625 C 5.347656 -17.675781 5.390625 -17.941406 5.390625 -18.203125 C 5.390625 -18.429688 5.351562 -18.625 5.28125 -18.78125 C 5.207031 -18.9375 5.109375 -19.125 4.984375 -19.34375 C 4.785156 -19.613281 4.6875 -19.832031 4.6875 -20 C 4.6875 -20.0625 4.707031 -20.179688 4.75 -20.359375 C 4.832031 -20.628906 5.015625 -20.820312 5.296875 -20.9375 C 5.585938 -21.050781 6.03125 -21.109375 6.625 -21.109375 Z M 14.078125 -21.109375 "/></g></g></g><g fill="#ffffff" fill-opacity="1"><g transform="translate(59.397749, 27.956216)"><g><path d="M 22.421875 -21.109375 C 23.109375 -21.109375 23.664062 -20.921875 24.09375 -20.546875 C 24.519531 -20.179688 24.734375 -19.71875 24.734375 -19.15625 C 24.734375 -18.34375 24.34375 -17.546875 23.5625 -16.765625 L 9.796875 -3.046875 L 13.53125 -3.046875 C 13.9375 -3.046875 14.289062 -3.125 14.59375 -3.28125 C 14.90625 -3.4375 15.238281 -3.71875 15.59375 -4.125 L 17.5 -6.21875 C 17.832031 -6.570312 18.148438 -6.828125 18.453125 -6.984375 C 18.765625 -7.148438 19.144531 -7.234375 19.59375 -7.234375 C 20.0625 -7.234375 20.441406 -7.125 20.734375 -6.90625 C 21.023438 -6.695312 21.171875 -6.378906 21.171875 -5.953125 C 21.171875 -5.785156 21.140625 -5.585938 21.078125 -5.359375 L 20.15625 -2.15625 C 19.925781 -1.351562 19.585938 -0.789062 19.140625 -0.46875 C 18.703125 -0.15625 18.0625 0 17.21875 0 L 3.015625 0 C 2.109375 0 1.425781 -0.179688 0.96875 -0.546875 C 0.507812 -0.921875 0.28125 -1.425781 0.28125 -2.0625 C 0.28125 -2.4375 0.378906 -2.804688 0.578125 -3.171875 C 0.785156 -3.546875 1.109375 -3.96875 1.546875 -4.4375 L 14.453125 -18.078125 L 11.515625 -18.078125 C 11.109375 -18.078125 10.75 -17.992188 10.4375 -17.828125 C 10.132812 -17.671875 9.804688 -17.394531 9.453125 -17 L 7.546875 -14.90625 C 7.203125 -14.539062 6.878906 -14.28125 6.578125 -14.125 C 6.273438 -13.96875 5.898438 -13.890625 5.453125 -13.890625 C 4.984375 -13.890625 4.601562 -13.992188 4.3125 -14.203125 C 4.019531 -14.410156 3.875 -14.726562 3.875 -15.15625 C 3.875 -15.34375 3.90625 -15.539062 3.96875 -15.75 L 4.875 -18.953125 C 5.113281 -19.753906 5.453125 -20.3125 5.890625 -20.625 C 6.335938 -20.945312 6.984375 -21.109375 7.828125 -21.109375 Z M 22.421875 -21.109375 "/></g></g></g><g fill="#ffffff" fill-opacity="1"><g transform="translate(90.682616, 27.956216)"><g><path d="M 22.421875 -21.109375 C 23.109375 -21.109375 23.664062 -20.921875 24.09375 -20.546875 C 24.519531 -20.179688 24.734375 -19.71875 24.734375 -19.15625 C 24.734375 -18.34375 24.34375 -17.546875 23.5625 -16.765625 L 9.796875 -3.046875 L 13.53125 -3.046875 C 13.9375 -3.046875 14.289062 -3.125 14.59375 -3.28125 C 14.90625 -3.4375 15.238281 -3.71875 15.59375 -4.125 L 17.5 -6.21875 C 17.832031 -6.570312 18.148438 -6.828125 18.453125 -6.984375 C 18.765625 -7.148438 19.144531 -7.234375 19.59375 -7.234375 C 20.0625 -7.234375 20.441406 -7.125 20.734375 -6.90625 C 21.023438 -6.695312 21.171875 -6.378906 21.171875 -5.953125 C 21.171875 -5.785156 21.140625 -5.585938 21.078125 -5.359375 L 20.15625 -2.15625 C 19.925781 -1.351562 19.585938 -0.789062 19.140625 -0.46875 C 18.703125 -0.15625 18.0625 0 17.21875 0 L 3.015625 0 C 2.109375 0 1.425781 -0.179688 0.96875 -0.546875 C 0.507812 -0.921875 0.28125 -1.425781 0.28125 -2.0625 C 0.28125 -2.4375 0.378906 -2.804688 0.578125 -3.171875 C 0.785156 -3.546875 1.109375 -3.96875 1.546875 -4.4375 L 14.453125 -18.078125 L 11.515625 -18.078125 C 11.109375 -18.078125 10.75 -17.992188 10.4375 -17.828125 C 10.132812 -17.671875 9.804688 -17.394531 9.453125 -17 L 7.546875 -14.90625 C 7.203125 -14.539062 6.878906 -14.28125 6.578125 -14.125 C 6.273438 -13.96875 5.898438 -13.890625 5.453125 -13.890625 C 4.984375 -13.890625 4.601562 -13.992188 4.3125 -14.203125 C 4.019531 -14.410156 3.875 -14.726562 3.875 -15.15625 C 3.875 -15.34375 3.90625 -15.539062 3.96875 -15.75 L 4.875 -18.953125 C 5.113281 -19.753906 5.453125 -20.3125 5.890625 -20.625 C 6.335938 -20.945312 6.984375 -21.109375 7.828125 -21.109375 Z M 22.421875 -21.109375 "/></g></g></g><g fill="#ffffff" fill-opacity="1"><g transform="translate(121.967484, 27.956216)"><g><path d="M 19.375 -3.734375 C 19.289062 -3.460938 19.25 -3.191406 19.25 -2.921875 C 19.25 -2.679688 19.28125 -2.484375 19.34375 -2.328125 C 19.40625 -2.171875 19.472656 -2.046875 19.546875 -1.953125 C 19.617188 -1.859375 19.664062 -1.789062 19.6875 -1.75 C 19.894531 -1.53125 20 -1.316406 20 -1.109375 C 20 -1.066406 19.976562 -0.960938 19.9375 -0.796875 C 19.851562 -0.492188 19.664062 -0.285156 19.375 -0.171875 C 19.09375 -0.0546875 18.660156 0 18.078125 0 L 10.5625 0 C 10.113281 0 9.765625 -0.0703125 9.515625 -0.21875 C 9.273438 -0.363281 9.15625 -0.566406 9.15625 -0.828125 C 9.15625 -0.953125 9.1875 -1.085938 9.25 -1.234375 C 9.320312 -1.398438 9.414062 -1.53125 9.53125 -1.625 C 9.644531 -1.726562 9.804688 -1.84375 10.015625 -1.96875 C 10.359375 -2.15625 10.632812 -2.363281 10.84375 -2.59375 C 11.050781 -2.832031 11.226562 -3.210938 11.375 -3.734375 L 12.203125 -6.46875 L 7.265625 -6.46875 L 6.40625 -4.65625 C 6.039062 -3.875 5.859375 -3.265625 5.859375 -2.828125 C 5.859375 -2.566406 5.898438 -2.359375 5.984375 -2.203125 C 6.078125 -2.046875 6.207031 -1.882812 6.375 -1.71875 C 6.519531 -1.539062 6.617188 -1.394531 6.671875 -1.28125 C 6.722656 -1.164062 6.726562 -1.015625 6.6875 -0.828125 C 6.601562 -0.503906 6.425781 -0.285156 6.15625 -0.171875 C 5.894531 -0.0546875 5.476562 0 4.90625 0 L 0.1875 0 C -0.289062 0 -0.65625 -0.0859375 -0.90625 -0.265625 C -1.164062 -0.441406 -1.296875 -0.679688 -1.296875 -0.984375 C -1.296875 -1.316406 -1.175781 -1.582031 -0.9375 -1.78125 C -0.695312 -1.988281 -0.332031 -2.207031 0.15625 -2.4375 C 0.789062 -2.757812 1.296875 -3.070312 1.671875 -3.375 C 2.054688 -3.6875 2.382812 -4.113281 2.65625 -4.65625 L 8.3125 -16.359375 C 9.175781 -18.171875 10.191406 -19.484375 11.359375 -20.296875 C 12.535156 -21.117188 14.085938 -21.53125 16.015625 -21.53125 C 18.171875 -21.53125 19.835938 -21.085938 21.015625 -20.203125 C 22.203125 -19.328125 22.796875 -18.109375 22.796875 -16.546875 C 22.796875 -15.890625 22.691406 -15.210938 22.484375 -14.515625 Z M 13.15625 -9.640625 L 14.84375 -15.21875 C 14.925781 -15.46875 14.96875 -15.734375 14.96875 -16.015625 C 14.96875 -16.410156 14.851562 -16.707031 14.625 -16.90625 C 14.40625 -17.113281 14.097656 -17.21875 13.703125 -17.21875 C 13.191406 -17.21875 12.753906 -17.066406 12.390625 -16.765625 C 12.035156 -16.472656 11.675781 -15.945312 11.3125 -15.1875 L 8.71875 -9.640625 Z M 13.15625 -9.640625 "/></g></g></g><g fill="#ffffff" fill-opacity="1"><g transform="translate(152.111356, 27.956216)"><g><path d="M 24.21875 -14.671875 C 23.882812 -13.453125 23.25 -12.5 22.3125 -11.8125 C 21.382812 -11.125 20.210938 -10.695312 18.796875 -10.53125 C 19.816406 -10.445312 20.578125 -10.148438 21.078125 -9.640625 C 21.585938 -9.128906 21.84375 -8.460938 21.84375 -7.640625 C 21.84375 -7.328125 21.789062 -6.9375 21.6875 -6.46875 L 21.34375 -4.90625 C 21.289062 -4.695312 21.265625 -4.550781 21.265625 -4.46875 C 21.265625 -4.195312 21.328125 -3.988281 21.453125 -3.84375 C 21.585938 -3.707031 21.769531 -3.640625 22 -3.640625 C 22.445312 -3.640625 22.769531 -3.578125 22.96875 -3.453125 C 23.164062 -3.328125 23.234375 -3.097656 23.171875 -2.765625 C 23.085938 -2.273438 22.832031 -1.796875 22.40625 -1.328125 C 21.988281 -0.867188 21.394531 -0.484375 20.625 -0.171875 C 19.851562 0.128906 18.914062 0.28125 17.8125 0.28125 C 16.414062 0.28125 15.304688 -0.0234375 14.484375 -0.640625 C 13.660156 -1.265625 13.25 -2.160156 13.25 -3.328125 C 13.25 -3.773438 13.3125 -4.25 13.4375 -4.75 L 13.953125 -6.78125 C 14.035156 -7.0625 14.078125 -7.347656 14.078125 -7.640625 C 14.078125 -8.128906 13.910156 -8.476562 13.578125 -8.6875 C 13.253906 -8.894531 12.734375 -9 12.015625 -9 L 10.8125 -9 L 9.359375 -3.734375 C 9.304688 -3.609375 9.28125 -3.453125 9.28125 -3.265625 C 9.28125 -2.972656 9.351562 -2.71875 9.5 -2.5 C 9.65625 -2.289062 9.859375 -2.070312 10.109375 -1.84375 C 10.304688 -1.6875 10.457031 -1.539062 10.5625 -1.40625 C 10.664062 -1.269531 10.71875 -1.128906 10.71875 -0.984375 C 10.71875 -0.617188 10.546875 -0.363281 10.203125 -0.21875 C 9.867188 -0.0703125 9.375 0 8.71875 0 L 0.765625 0 C 0.210938 0 -0.195312 -0.0976562 -0.46875 -0.296875 C -0.75 -0.503906 -0.847656 -0.785156 -0.765625 -1.140625 C -0.722656 -1.328125 -0.640625 -1.476562 -0.515625 -1.59375 C -0.398438 -1.71875 -0.226562 -1.851562 0 -2 C 0.351562 -2.207031 0.632812 -2.425781 0.84375 -2.65625 C 1.0625 -2.894531 1.234375 -3.253906 1.359375 -3.734375 L 5.234375 -17.40625 C 5.316406 -17.675781 5.359375 -17.941406 5.359375 -18.203125 C 5.359375 -18.429688 5.320312 -18.625 5.25 -18.78125 C 5.175781 -18.9375 5.078125 -19.125 4.953125 -19.34375 C 4.753906 -19.613281 4.65625 -19.832031 4.65625 -20 C 4.65625 -20.0625 4.675781 -20.179688 4.71875 -20.359375 C 4.800781 -20.628906 4.984375 -20.820312 5.265625 -20.9375 C 5.554688 -21.050781 6 -21.109375 6.59375 -21.109375 L 17.21875 -21.109375 C 18.675781 -21.109375 19.945312 -20.882812 21.03125 -20.4375 C 22.125 -20 22.957031 -19.394531 23.53125 -18.625 C 24.113281 -17.851562 24.40625 -16.984375 24.40625 -16.015625 C 24.40625 -15.566406 24.34375 -15.117188 24.21875 -14.671875 Z M 16.109375 -15 C 16.210938 -15.476562 16.265625 -15.847656 16.265625 -16.109375 C 16.265625 -17.222656 15.648438 -17.78125 14.421875 -17.78125 L 13.09375 -17.78125 L 11.703125 -12.171875 L 13.03125 -12.171875 C 13.851562 -12.171875 14.5 -12.367188 14.96875 -12.765625 C 15.445312 -13.171875 15.828125 -13.914062 16.109375 -15 Z M 16.109375 -15 "/></g></g></g><g fill="#ffffff" fill-opacity="1"><g transform="translate(184.188588, 27.956216)"><g><path d="M 14.078125 -21.109375 C 14.515625 -21.109375 14.851562 -21.039062 15.09375 -20.90625 C 15.34375 -20.769531 15.46875 -20.578125 15.46875 -20.328125 C 15.46875 -20.210938 15.4375 -20.070312 15.375 -19.90625 C 15.3125 -19.757812 15.222656 -19.628906 15.109375 -19.515625 C 14.992188 -19.398438 14.882812 -19.316406 14.78125 -19.265625 C 14.6875 -19.210938 14.617188 -19.160156 14.578125 -19.109375 C 14.242188 -18.921875 13.96875 -18.710938 13.75 -18.484375 C 13.539062 -18.253906 13.363281 -17.894531 13.21875 -17.40625 L 9.390625 -3.734375 C 9.296875 -3.460938 9.25 -3.203125 9.25 -2.953125 C 9.25 -2.691406 9.285156 -2.476562 9.359375 -2.3125 C 9.441406 -2.144531 9.554688 -1.96875 9.703125 -1.78125 C 9.890625 -1.5 9.984375 -1.273438 9.984375 -1.109375 C 9.984375 -1.066406 9.960938 -0.960938 9.921875 -0.796875 C 9.835938 -0.492188 9.644531 -0.285156 9.34375 -0.171875 C 9.050781 -0.0546875 8.609375 0 8.015625 0 L 0.578125 0 C 0.128906 0 -0.210938 -0.0703125 -0.453125 -0.21875 C -0.703125 -0.363281 -0.828125 -0.566406 -0.828125 -0.828125 C -0.828125 -0.953125 -0.796875 -1.085938 -0.734375 -1.234375 C -0.648438 -1.460938 -0.507812 -1.640625 -0.3125 -1.765625 C -0.125 -1.898438 -0.0078125 -1.976562 0.03125 -2 C 0.363281 -2.207031 0.632812 -2.421875 0.84375 -2.640625 C 1.0625 -2.867188 1.242188 -3.234375 1.390625 -3.734375 L 5.265625 -17.40625 C 5.347656 -17.675781 5.390625 -17.941406 5.390625 -18.203125 C 5.390625 -18.429688 5.351562 -18.625 5.28125 -18.78125 C 5.207031 -18.9375 5.109375 -19.125 4.984375 -19.34375 C 4.785156 -19.613281 4.6875 -19.832031 4.6875 -20 C 4.6875 -20.0625 4.707031 -20.179688 4.75 -20.359375 C 4.832031 -20.628906 5.015625 -20.820312 5.296875 -20.9375 C 5.585938 -21.050781 6.03125 -21.109375 6.625 -21.109375 Z M 14.078125 -21.109375 "/></g></g></g><g fill="#ffffff" fill-opacity="1"><g transform="translate(205.01428, 27.956216)"><g><path d="M 19.375 -3.734375 C 19.289062 -3.460938 19.25 -3.191406 19.25 -2.921875 C 19.25 -2.679688 19.28125 -2.484375 19.34375 -2.328125 C 19.40625 -2.171875 19.472656 -2.046875 19.546875 -1.953125 C 19.617188 -1.859375 19.664062 -1.789062 19.6875 -1.75 C 19.894531 -1.53125 20 -1.316406 20 -1.109375 C 20 -1.066406 19.976562 -0.960938 19.9375 -0.796875 C 19.851562 -0.492188 19.664062 -0.285156 19.375 -0.171875 C 19.09375 -0.0546875 18.660156 0 18.078125 0 L 10.5625 0 C 10.113281 0 9.765625 -0.0703125 9.515625 -0.21875 C 9.273438 -0.363281 9.15625 -0.566406 9.15625 -0.828125 C 9.15625 -0.953125 9.1875 -1.085938 9.25 -1.234375 C 9.320312 -1.398438 9.414062 -1.53125 9.53125 -1.625 C 9.644531 -1.726562 9.804688 -1.84375 10.015625 -1.96875 C 10.359375 -2.15625 10.632812 -2.363281 10.84375 -2.59375 C 11.050781 -2.832031 11.226562 -3.210938 11.375 -3.734375 L 12.203125 -6.46875 L 7.265625 -6.46875 L 6.40625 -4.65625 C 6.039062 -3.875 5.859375 -3.265625 5.859375 -2.828125 C 5.859375 -2.566406 5.898438 -2.359375 5.984375 -2.203125 C 6.078125 -2.046875 6.207031 -1.882812 6.375 -1.71875 C 6.519531 -1.539062 6.617188 -1.394531 6.671875 -1.28125 C 6.722656 -1.164062 6.726562 -1.015625 6.6875 -0.828125 C 6.601562 -0.503906 6.425781 -0.285156 6.15625 -0.171875 C 5.894531 -0.0546875 5.476562 0 4.90625 0 L 0.1875 0 C -0.289062 0 -0.65625 -0.0859375 -0.90625 -0.265625 C -1.164062 -0.441406 -1.296875 -0.679688 -1.296875 -0.984375 C -1.296875 -1.316406 -1.175781 -1.582031 -0.9375 -1.78125 C -0.695312 -1.988281 -0.332031 -2.207031 0.15625 -2.4375 C 0.789062 -2.757812 1.296875 -3.070312 1.671875 -3.375 C 2.054688 -3.6875 2.382812 -4.113281 2.65625 -4.65625 L 8.3125 -16.359375 C 9.175781 -18.171875 10.191406 -19.484375 11.359375 -20.296875 C 12.535156 -21.117188 14.085938 -21.53125 16.015625 -21.53125 C 18.171875 -21.53125 19.835938 -21.085938 21.015625 -20.203125 C 22.203125 -19.328125 22.796875 -18.109375 22.796875 -16.546875 C 22.796875 -15.890625 22.691406 -15.210938 22.484375 -14.515625 Z M 13.15625 -9.640625 L 14.84375 -15.21875 C 14.925781 -15.46875 14.96875 -15.734375 14.96875 -16.015625 C 14.96875 -16.410156 14.851562 -16.707031 14.625 -16.90625 C 14.40625 -17.113281 14.097656 -17.21875 13.703125 -17.21875 C 13.191406 -17.21875 12.753906 -17.066406 12.390625 -16.765625 C 12.035156 -16.472656 11.675781 -15.945312 11.3125 -15.1875 L 8.71875 -9.640625 Z M 13.15625 -9.640625 "/></g></g></g></svg>